<mxfile host="app.diagrams.net" modified="2024-05-26T05:57:39.232Z" agent="Mozilla/5.0 (Windows NT 10.0; Win64; x64) AppleWebKit/537.36 (KHTML, like Gecko) Chrome/125.0.0.0 Safari/537.36 Edg/125.0.0.0" etag="GZysFVGI_C4ITu5FU2qr" version="24.4.8" type="github">
  <diagram name="第 1 页" id="GFDnq8A1j9Ts8vp0uMaV">
    <mxGraphModel dx="4246" dy="3450" grid="0" gridSize="10" guides="1" tooltips="1" connect="1" arrows="1" fold="1" page="0" pageScale="1" pageWidth="2339" pageHeight="3300" math="0" shadow="0">
      <root>
        <mxCell id="0" />
        <mxCell id="1" parent="0" />
        <mxCell id="oPK-tAkvvweWWnvE1Nti-43" style="rounded=0;orthogonalLoop=1;jettySize=auto;html=1;exitX=1;exitY=1;exitDx=0;exitDy=0;entryX=0;entryY=0.75;entryDx=0;entryDy=0;fontFamily=Helvetica;fontSize=14;fontColor=default;strokeWidth=2;" edge="1" parent="1" source="oPK-tAkvvweWWnvE1Nti-1" target="oPK-tAkvvweWWnvE1Nti-24">
          <mxGeometry relative="1" as="geometry" />
        </mxCell>
        <mxCell id="oPK-tAkvvweWWnvE1Nti-44" style="edgeStyle=none;rounded=0;orthogonalLoop=1;jettySize=auto;html=1;exitX=1;exitY=0;exitDx=0;exitDy=0;entryX=0;entryY=0.75;entryDx=0;entryDy=0;strokeColor=default;strokeWidth=2;align=center;verticalAlign=middle;fontFamily=Helvetica;fontSize=14;fontColor=default;labelBackgroundColor=default;endArrow=classic;" edge="1" parent="1" source="oPK-tAkvvweWWnvE1Nti-1" target="oPK-tAkvvweWWnvE1Nti-2">
          <mxGeometry relative="1" as="geometry" />
        </mxCell>
        <mxCell id="oPK-tAkvvweWWnvE1Nti-1" value="" style="whiteSpace=wrap;html=1;aspect=fixed;strokeWidth=2;" vertex="1" parent="1">
          <mxGeometry x="80" y="216" width="80" height="80" as="geometry" />
        </mxCell>
        <mxCell id="oPK-tAkvvweWWnvE1Nti-45" style="edgeStyle=none;rounded=0;orthogonalLoop=1;jettySize=auto;html=1;exitX=1;exitY=0.5;exitDx=0;exitDy=0;entryX=0;entryY=0.5;entryDx=0;entryDy=0;strokeColor=default;strokeWidth=2;align=center;verticalAlign=middle;fontFamily=Helvetica;fontSize=14;fontColor=default;labelBackgroundColor=default;endArrow=classic;" edge="1" parent="1" source="oPK-tAkvvweWWnvE1Nti-2" target="oPK-tAkvvweWWnvE1Nti-20">
          <mxGeometry relative="1" as="geometry" />
        </mxCell>
        <mxCell id="oPK-tAkvvweWWnvE1Nti-59" style="edgeStyle=none;rounded=0;orthogonalLoop=1;jettySize=auto;html=1;exitX=0.5;exitY=1;exitDx=0;exitDy=0;entryX=0.5;entryY=0;entryDx=0;entryDy=0;strokeColor=default;strokeWidth=2;align=center;verticalAlign=middle;fontFamily=Helvetica;fontSize=14;fontColor=default;labelBackgroundColor=default;endArrow=classic;" edge="1" parent="1" source="oPK-tAkvvweWWnvE1Nti-2" target="oPK-tAkvvweWWnvE1Nti-57">
          <mxGeometry relative="1" as="geometry" />
        </mxCell>
        <mxCell id="oPK-tAkvvweWWnvE1Nti-2" value="" style="rounded=1;whiteSpace=wrap;html=1;strokeWidth=2;fontSize=14;horizontal=1;" vertex="1" parent="1">
          <mxGeometry x="285" y="49" width="107" height="116" as="geometry" />
        </mxCell>
        <mxCell id="oPK-tAkvvweWWnvE1Nti-3" value="" style="line;strokeWidth=2;html=1;strokeColor=default;align=center;verticalAlign=middle;fontFamily=Helvetica;fontSize=12;fontColor=default;fillColor=default;" vertex="1" parent="1">
          <mxGeometry x="285" y="81" width="106" height="10" as="geometry" />
        </mxCell>
        <mxCell id="oPK-tAkvvweWWnvE1Nti-4" value="1" style="text;html=1;align=center;verticalAlign=middle;whiteSpace=wrap;rounded=0;fontFamily=Helvetica;fontSize=12;fontColor=default;" vertex="1" parent="1">
          <mxGeometry x="308" y="54" width="60" height="30" as="geometry" />
        </mxCell>
        <mxCell id="oPK-tAkvvweWWnvE1Nti-5" value="&lt;font style=&quot;font-size: 14px;&quot;&gt;记录存款信息&lt;/font&gt;" style="text;html=1;align=center;verticalAlign=middle;whiteSpace=wrap;rounded=0;fontFamily=Helvetica;fontSize=12;fontColor=default;" vertex="1" parent="1">
          <mxGeometry x="308.5" y="105" width="60" height="30" as="geometry" />
        </mxCell>
        <mxCell id="oPK-tAkvvweWWnvE1Nti-46" style="edgeStyle=none;rounded=0;orthogonalLoop=1;jettySize=auto;html=1;exitX=1;exitY=0.5;exitDx=0;exitDy=0;entryX=0;entryY=0.5;entryDx=0;entryDy=0;strokeColor=default;strokeWidth=2;align=center;verticalAlign=middle;fontFamily=Helvetica;fontSize=14;fontColor=default;labelBackgroundColor=default;endArrow=classic;" edge="1" parent="1" source="oPK-tAkvvweWWnvE1Nti-20" target="oPK-tAkvvweWWnvE1Nti-40">
          <mxGeometry relative="1" as="geometry" />
        </mxCell>
        <mxCell id="oPK-tAkvvweWWnvE1Nti-20" value="" style="rounded=1;whiteSpace=wrap;html=1;strokeWidth=2;" vertex="1" parent="1">
          <mxGeometry x="472" y="49" width="107" height="116" as="geometry" />
        </mxCell>
        <mxCell id="oPK-tAkvvweWWnvE1Nti-21" value="" style="line;strokeWidth=2;html=1;strokeColor=default;align=center;verticalAlign=middle;fontFamily=Helvetica;fontSize=12;fontColor=default;fillColor=default;" vertex="1" parent="1">
          <mxGeometry x="472" y="81" width="106" height="10" as="geometry" />
        </mxCell>
        <mxCell id="oPK-tAkvvweWWnvE1Nti-22" value="2" style="text;html=1;align=center;verticalAlign=middle;whiteSpace=wrap;rounded=0;fontFamily=Helvetica;fontSize=12;fontColor=default;" vertex="1" parent="1">
          <mxGeometry x="495" y="54" width="60" height="30" as="geometry" />
        </mxCell>
        <mxCell id="oPK-tAkvvweWWnvE1Nti-23" value="&lt;span style=&quot;font-size: 14px;&quot;&gt;打印存款存单&lt;/span&gt;" style="text;html=1;align=center;verticalAlign=middle;whiteSpace=wrap;rounded=0;fontFamily=Helvetica;fontSize=12;fontColor=default;" vertex="1" parent="1">
          <mxGeometry x="495.5" y="105" width="60" height="30" as="geometry" />
        </mxCell>
        <mxCell id="oPK-tAkvvweWWnvE1Nti-47" style="edgeStyle=none;rounded=0;orthogonalLoop=1;jettySize=auto;html=1;exitX=1;exitY=0.5;exitDx=0;exitDy=0;entryX=0;entryY=0.5;entryDx=0;entryDy=0;strokeColor=default;strokeWidth=2;align=center;verticalAlign=middle;fontFamily=Helvetica;fontSize=14;fontColor=default;labelBackgroundColor=default;endArrow=classic;" edge="1" parent="1" source="oPK-tAkvvweWWnvE1Nti-24" target="oPK-tAkvvweWWnvE1Nti-28">
          <mxGeometry relative="1" as="geometry" />
        </mxCell>
        <mxCell id="oPK-tAkvvweWWnvE1Nti-24" value="" style="rounded=1;whiteSpace=wrap;html=1;strokeWidth=2;" vertex="1" parent="1">
          <mxGeometry x="279" y="285" width="107" height="116" as="geometry" />
        </mxCell>
        <mxCell id="oPK-tAkvvweWWnvE1Nti-25" value="" style="line;strokeWidth=2;html=1;strokeColor=default;align=center;verticalAlign=middle;fontFamily=Helvetica;fontSize=12;fontColor=default;fillColor=default;" vertex="1" parent="1">
          <mxGeometry x="279" y="317" width="106" height="10" as="geometry" />
        </mxCell>
        <mxCell id="oPK-tAkvvweWWnvE1Nti-26" value="3" style="text;html=1;align=center;verticalAlign=middle;whiteSpace=wrap;rounded=0;fontFamily=Helvetica;fontSize=12;fontColor=default;" vertex="1" parent="1">
          <mxGeometry x="302" y="290" width="60" height="30" as="geometry" />
        </mxCell>
        <mxCell id="oPK-tAkvvweWWnvE1Nti-27" value="&lt;span style=&quot;font-size: 14px;&quot;&gt;核对密码&lt;/span&gt;" style="text;html=1;align=center;verticalAlign=middle;whiteSpace=wrap;rounded=0;fontFamily=Helvetica;fontSize=12;fontColor=default;" vertex="1" parent="1">
          <mxGeometry x="302.5" y="341" width="60" height="30" as="geometry" />
        </mxCell>
        <mxCell id="oPK-tAkvvweWWnvE1Nti-48" style="edgeStyle=none;rounded=0;orthogonalLoop=1;jettySize=auto;html=1;exitX=1;exitY=0.5;exitDx=0;exitDy=0;entryX=0;entryY=0.5;entryDx=0;entryDy=0;strokeColor=default;strokeWidth=2;align=center;verticalAlign=middle;fontFamily=Helvetica;fontSize=14;fontColor=default;labelBackgroundColor=default;endArrow=classic;" edge="1" parent="1" source="oPK-tAkvvweWWnvE1Nti-28" target="oPK-tAkvvweWWnvE1Nti-32">
          <mxGeometry relative="1" as="geometry" />
        </mxCell>
        <mxCell id="oPK-tAkvvweWWnvE1Nti-28" value="" style="rounded=1;whiteSpace=wrap;html=1;strokeWidth=2;" vertex="1" parent="1">
          <mxGeometry x="475" y="285" width="107" height="116" as="geometry" />
        </mxCell>
        <mxCell id="oPK-tAkvvweWWnvE1Nti-29" value="" style="line;strokeWidth=2;html=1;strokeColor=default;align=center;verticalAlign=middle;fontFamily=Helvetica;fontSize=12;fontColor=default;fillColor=default;" vertex="1" parent="1">
          <mxGeometry x="475" y="317" width="106" height="10" as="geometry" />
        </mxCell>
        <mxCell id="oPK-tAkvvweWWnvE1Nti-30" value="4" style="text;html=1;align=center;verticalAlign=middle;whiteSpace=wrap;rounded=0;fontFamily=Helvetica;fontSize=12;fontColor=default;" vertex="1" parent="1">
          <mxGeometry x="498" y="290" width="60" height="30" as="geometry" />
        </mxCell>
        <mxCell id="oPK-tAkvvweWWnvE1Nti-31" value="&lt;span style=&quot;font-size: 14px;&quot;&gt;计算利息&lt;/span&gt;" style="text;html=1;align=center;verticalAlign=middle;whiteSpace=wrap;rounded=0;fontFamily=Helvetica;fontSize=12;fontColor=default;" vertex="1" parent="1">
          <mxGeometry x="498.5" y="341" width="60" height="30" as="geometry" />
        </mxCell>
        <mxCell id="oPK-tAkvvweWWnvE1Nti-32" value="" style="rounded=1;whiteSpace=wrap;html=1;strokeWidth=2;" vertex="1" parent="1">
          <mxGeometry x="698" y="285" width="107" height="116" as="geometry" />
        </mxCell>
        <mxCell id="oPK-tAkvvweWWnvE1Nti-33" value="" style="line;strokeWidth=2;html=1;strokeColor=default;align=center;verticalAlign=middle;fontFamily=Helvetica;fontSize=12;fontColor=default;fillColor=default;" vertex="1" parent="1">
          <mxGeometry x="698" y="317" width="106" height="10" as="geometry" />
        </mxCell>
        <mxCell id="oPK-tAkvvweWWnvE1Nti-34" value="5" style="text;html=1;align=center;verticalAlign=middle;whiteSpace=wrap;rounded=0;fontFamily=Helvetica;fontSize=12;fontColor=default;" vertex="1" parent="1">
          <mxGeometry x="721" y="290" width="60" height="30" as="geometry" />
        </mxCell>
        <mxCell id="oPK-tAkvvweWWnvE1Nti-35" value="&lt;span style=&quot;font-size: 14px;&quot;&gt;打印利息清单&lt;/span&gt;" style="text;html=1;align=center;verticalAlign=middle;whiteSpace=wrap;rounded=0;fontFamily=Helvetica;fontSize=12;fontColor=default;" vertex="1" parent="1">
          <mxGeometry x="721.5" y="341" width="60" height="30" as="geometry" />
        </mxCell>
        <mxCell id="oPK-tAkvvweWWnvE1Nti-36" value="" style="whiteSpace=wrap;html=1;aspect=fixed;strokeWidth=2;" vertex="1" parent="1">
          <mxGeometry x="692" y="64.5" width="80" height="80" as="geometry" />
        </mxCell>
        <mxCell id="oPK-tAkvvweWWnvE1Nti-37" value="" style="endArrow=none;html=1;rounded=0;fontFamily=Helvetica;fontSize=12;fontColor=default;" edge="1" parent="1">
          <mxGeometry width="50" height="50" relative="1" as="geometry">
            <mxPoint x="110" y="297" as="sourcePoint" />
            <mxPoint x="160" y="247" as="targetPoint" />
          </mxGeometry>
        </mxCell>
        <mxCell id="oPK-tAkvvweWWnvE1Nti-38" value="" style="endArrow=none;html=1;rounded=0;fontFamily=Helvetica;fontSize=12;fontColor=default;" edge="1" parent="1">
          <mxGeometry width="50" height="50" relative="1" as="geometry">
            <mxPoint x="722" y="144.5" as="sourcePoint" />
            <mxPoint x="772" y="94.5" as="targetPoint" />
          </mxGeometry>
        </mxCell>
        <mxCell id="oPK-tAkvvweWWnvE1Nti-39" value="储户" style="text;html=1;align=center;verticalAlign=middle;whiteSpace=wrap;rounded=0;fontFamily=Helvetica;fontSize=14;fontColor=default;strokeWidth=2;" vertex="1" parent="1">
          <mxGeometry x="93" y="241" width="60" height="30" as="geometry" />
        </mxCell>
        <mxCell id="oPK-tAkvvweWWnvE1Nti-40" value="" style="whiteSpace=wrap;html=1;aspect=fixed;strokeWidth=2;" vertex="1" parent="1">
          <mxGeometry x="692" y="64" width="80" height="80" as="geometry" />
        </mxCell>
        <mxCell id="oPK-tAkvvweWWnvE1Nti-41" value="" style="endArrow=none;html=1;rounded=0;fontFamily=Helvetica;fontSize=12;fontColor=default;" edge="1" parent="1">
          <mxGeometry width="50" height="50" relative="1" as="geometry">
            <mxPoint x="722" y="145" as="sourcePoint" />
            <mxPoint x="772" y="95" as="targetPoint" />
          </mxGeometry>
        </mxCell>
        <mxCell id="oPK-tAkvvweWWnvE1Nti-42" value="储户" style="text;html=1;align=center;verticalAlign=middle;whiteSpace=wrap;rounded=0;fontFamily=Helvetica;fontSize=14;fontColor=default;strokeWidth=2;" vertex="1" parent="1">
          <mxGeometry x="705" y="89" width="60" height="30" as="geometry" />
        </mxCell>
        <mxCell id="oPK-tAkvvweWWnvE1Nti-49" value="存款单&lt;span style=&quot;color: rgba(0, 0, 0, 0); font-family: monospace; font-size: 0px; text-align: start; text-wrap: nowrap;&quot;&gt;%3CmxGraphModel%3E%3Croot%3E%3CmxCell%20id%3D%220%22%2F%3E%3CmxCell%20id%3D%221%22%20parent%3D%220%22%2F%3E%3CmxCell%20id%3D%222%22%20value%3D%22%22%20style%3D%22whiteSpace%3Dwrap%3Bhtml%3D1%3Baspect%3Dfixed%3BstrokeWidth%3D2%3B%22%20vertex%3D%221%22%20parent%3D%221%22%3E%3CmxGeometry%20x%3D%2280%22%20y%3D%22216%22%20width%3D%2280%22%20height%3D%2280%22%20as%3D%22geometry%22%2F%3E%3C%2FmxCell%3E%3CmxCell%20id%3D%223%22%20value%3D%22%22%20style%3D%22endArrow%3Dnone%3Bhtml%3D1%3Brounded%3D0%3BfontFamily%3DHelvetica%3BfontSize%3D12%3BfontColor%3Ddefault%3B%22%20edge%3D%221%22%20parent%3D%221%22%3E%3CmxGeometry%20width%3D%2250%22%20height%3D%2250%22%20relative%3D%221%22%20as%3D%22geometry%22%3E%3CmxPoint%20x%3D%22110%22%20y%3D%22297%22%20as%3D%22sourcePoint%22%2F%3E%3CmxPoint%20x%3D%22160%22%20y%3D%22247%22%20as%3D%22targetPoint%22%2F%3E%3C%2FmxGeometry%3E%3C%2FmxCell%3E%3CmxCell%20id%3D%224%22%20value%3D%22%E5%82%A8%E6%88%B7%22%20style%3D%22text%3Bhtml%3D1%3Balign%3Dcenter%3BverticalAlign%3Dmiddle%3BwhiteSpace%3Dwrap%3Brounded%3D0%3BfontFamily%3DHelvetica%3BfontSize%3D14%3BfontColor%3Ddefault%3BstrokeWidth%3D2%3B%22%20vertex%3D%221%22%20parent%3D%221%22%3E%3CmxGeometry%20x%3D%2293%22%20y%3D%22241%22%20width%3D%2260%22%20height%3D%2230%22%20as%3D%22geometry%22%2F%3E%3C%2FmxCell%3E%3C%2Froot%3E%3C%2FmxGraphModel%3E&lt;/span&gt;" style="text;html=1;align=center;verticalAlign=middle;whiteSpace=wrap;rounded=0;fontFamily=Helvetica;fontSize=14;fontColor=default;labelBackgroundColor=default;" vertex="1" parent="1">
          <mxGeometry x="169" y="154" width="60" height="30" as="geometry" />
        </mxCell>
        <mxCell id="oPK-tAkvvweWWnvE1Nti-50" value="取存款" style="text;html=1;align=center;verticalAlign=middle;whiteSpace=wrap;rounded=0;fontFamily=Helvetica;fontSize=14;fontColor=default;labelBackgroundColor=default;" vertex="1" parent="1">
          <mxGeometry x="160" y="320" width="60" height="30" as="geometry" />
        </mxCell>
        <mxCell id="oPK-tAkvvweWWnvE1Nti-51" value="存款信息&lt;span style=&quot;color: rgba(0, 0, 0, 0); font-family: monospace; font-size: 0px; text-align: start; text-wrap: nowrap;&quot;&gt;%3CmxGraphModel%3E%3Croot%3E%3CmxCell%20id%3D%220%22%2F%3E%3CmxCell%20id%3D%221%22%20parent%3D%220%22%2F%3E%3CmxCell%20id%3D%222%22%20value%3D%22%22%20style%3D%22whiteSpace%3Dwrap%3Bhtml%3D1%3Baspect%3Dfixed%3BstrokeWidth%3D2%3B%22%20vertex%3D%221%22%20parent%3D%221%22%3E%3CmxGeometry%20x%3D%2280%22%20y%3D%22216%22%20width%3D%2280%22%20height%3D%2280%22%20as%3D%22geometry%22%2F%3E%3C%2FmxCell%3E%3CmxCell%20id%3D%223%22%20value%3D%22%22%20style%3D%22endArrow%3Dnone%3Bhtml%3D1%3Brounded%3D0%3BfontFamily%3DHelvetica%3BfontSize%3D12%3BfontColor%3Ddefault%3B%22%20edge%3D%221%22%20parent%3D%221%22%3E%3CmxGeometry%20width%3D%2250%22%20height%3D%2250%22%20relative%3D%221%22%20as%3D%22geometry%22%3E%3CmxPoint%20x%3D%22110%22%20y%3D%22297%22%20as%3D%22sourcePoint%22%2F%3E%3CmxPoint%20x%3D%22160%22%20y%3D%22247%22%20as%3D%22targetPoint%22%2F%3E%3C%2FmxGeometry%3E%3C%2FmxCell%3E%3CmxCell%20id%3D%224%22%20value%3D%22%E5%82%A8%E6%88%B7%22%20style%3D%22text%3Bhtml%3D1%3Balign%3Dcenter%3BverticalAlign%3Dmiddle%3BwhiteSpace%3Dwrap%3Brounded%3D0%3BfontFamily%3DHelvetica%3BfontSize%3D14%3BfontColor%3Ddefault%3BstrokeWidth%3D2%3B%22%20vertex%3D%221%22%20parent%3D%221%22%3E%3CmxGeometry%20x%3D%2293%22%20y%3D%22241%22%20width%3D%2260%22%20height%3D%2230%22%20as%3D%22geometry%22%2F%3E%3C%2FmxCell%3E%3C%2Froot%3E%3C%2FmxGraphModel%3&lt;/span&gt;" style="text;html=1;align=center;verticalAlign=middle;whiteSpace=wrap;rounded=0;fontFamily=Helvetica;fontSize=14;fontColor=default;labelBackgroundColor=default;" vertex="1" parent="1">
          <mxGeometry x="398" y="315" width="60" height="30" as="geometry" />
        </mxCell>
        <mxCell id="oPK-tAkvvweWWnvE1Nti-52" value="利息值&lt;span style=&quot;color: rgba(0, 0, 0, 0); font-family: monospace; font-size: 0px; text-align: start; text-wrap: nowrap;&quot;&gt;%3CmxGraphModel%3E%3Croot%3E%3CmxCell%20id%3D%220%22%2F%3E%3CmxCell%20id%3D%221%22%20parent%3D%220%22%2F%3E%3CmxCell%20id%3D%222%22%20value%3D%22%E5%AD%98%E6%AC%BE%E4%BF%A1%E6%81%AF%26lt%3Bspan%20style%3D%26quot%3Bcolor%3A%20rgba(0%2C%200%2C%200%2C%200)%3B%20font-family%3A%20monospace%3B%20font-size%3A%200px%3B%20text-align%3A%20start%3B%20text-wrap%3A%20nowrap%3B%26quot%3B%26gt%3B%253CmxGraphModel%253E%253Croot%253E%253CmxCell%2520id%253D%25220%2522%252F%253E%253CmxCell%2520id%253D%25221%2522%2520parent%253D%25220%2522%252F%253E%253CmxCell%2520id%253D%25222%2522%2520value%253D%2522%2522%2520style%253D%2522whiteSpace%253Dwrap%253Bhtml%253D1%253Baspect%253Dfixed%253BstrokeWidth%253D2%253B%2522%2520vertex%253D%25221%2522%2520parent%253D%25221%2522%253E%253CmxGeometry%2520x%253D%252280%2522%2520y%253D%2522216%2522%2520width%253D%252280%2522%2520height%253D%252280%2522%2520as%253D%2522geometry%2522%252F%253E%253C%252FmxCell%253E%253CmxCell%2520id%253D%25223%2522%2520value%253D%2522%2522%2520style%253D%2522endArrow%253Dnone%253Bhtml%253D1%253Brounded%253D0%253BfontFamily%253DHelvetica%253BfontSize%253D12%253BfontColor%253Ddefault%253B%2522%2520edge%253D%25221%2522%2520parent%253D%25221%2522%253E%253CmxGeometry%2520width%253D%252250%2522%2520height%253D%252250%2522%2520relative%253D%25221%2522%2520as%253D%2522geometry%2522%253E%253CmxPoint%2520x%253D%2522110%2522%2520y%253D%2522297%2522%2520as%253D%2522sourcePoint%2522%252F%253E%253CmxPoint%2520x%253D%2522160%2522%2520y%253D%2522247%2522%2520as%253D%2522targetPoint%2522%252F%253E%253C%252FmxGeometry%253E%253C%252FmxCell%253E%253CmxCell%2520id%253D%25224%2522%2520value%253D%2522%25E5%2582%25A8%25E6%2588%25B7%2522%2520style%253D%2522text%253Bhtml%253D1%253Balign%253Dcenter%253BverticalAlign%253Dmiddle%253BwhiteSpace%253Dwrap%253Brounded%253D0%253BfontFamily%253DHelvetica%253BfontSize%253D14%253BfontColor%253Ddefault%253BstrokeWidth%253D2%253B%2522%2520vertex%253D%25221%2522%2520parent%253D%25221%2522%253E%253CmxGeometry%2520x%253D%252293%2522%2520y%253D%2522241%2522%2520width%253D%252260%2522%2520height%253D%252230%2522%2520as%253D%2522geometry%2522%252F%253E%253C%252FmxCell%253E%253C%252Froot%253E%253C%252FmxGraphModel%253%26lt%3B%2Fspan%26gt%3B%22%20style%3D%22text%3Bhtml%3D1%3Balign%3Dcenter%3BverticalAlign%3Dmiddle%3BwhiteSpace%3Dwrap%3Brounded%3D0%3BfontFamily%3DHelvetica%3BfontSize%3D14%3BfontColor%3Ddefault%3BlabelBackgroundColor%3Ddefault%3B%22%20vertex%3D%221%22%20parent%3D%221%22%3E%3CmxGeometry%20x%3D%22398%22%20y%3D%22315%22%20width%3D%2260%22%20height%3D%2230%22%20as%3D%22geometry%22%2F%3E%3C%2FmxCell%3E%3C%2Froot%3E%3C%2FmxGraphModel%3E&lt;/span&gt;" style="text;html=1;align=center;verticalAlign=middle;whiteSpace=wrap;rounded=0;fontFamily=Helvetica;fontSize=14;fontColor=default;labelBackgroundColor=default;" vertex="1" parent="1">
          <mxGeometry x="607" y="317" width="60" height="30" as="geometry" />
        </mxCell>
        <mxCell id="oPK-tAkvvweWWnvE1Nti-53" value="存款信息&lt;span style=&quot;color: rgba(0, 0, 0, 0); font-family: monospace; font-size: 0px; text-align: start; text-wrap: nowrap;&quot;&gt;%3CmxGraphModel%3E%3Croot%3E%3CmxCell%20id%3D%220%22%2F%3E%3CmxCell%20id%3D%221%22%20parent%3D%220%22%2F%3E%3CmxCell%20id%3D%222%22%20value%3D%22%22%20style%3D%22whiteSpace%3Dwrap%3Bhtml%3D1%3Baspect%3Dfixed%3BstrokeWidth%3D2%3B%22%20vertex%3D%221%22%20parent%3D%221%22%3E%3CmxGeometry%20x%3D%2280%22%20y%3D%22216%22%20width%3D%2280%22%20height%3D%2280%22%20as%3D%22geometry%22%2F%3E%3C%2FmxCell%3E%3CmxCell%20id%3D%223%22%20value%3D%22%22%20style%3D%22endArrow%3Dnone%3Bhtml%3D1%3Brounded%3D0%3BfontFamily%3DHelvetica%3BfontSize%3D12%3BfontColor%3Ddefault%3B%22%20edge%3D%221%22%20parent%3D%221%22%3E%3CmxGeometry%20width%3D%2250%22%20height%3D%2250%22%20relative%3D%221%22%20as%3D%22geometry%22%3E%3CmxPoint%20x%3D%22110%22%20y%3D%22297%22%20as%3D%22sourcePoint%22%2F%3E%3CmxPoint%20x%3D%22160%22%20y%3D%22247%22%20as%3D%22targetPoint%22%2F%3E%3C%2FmxGeometry%3E%3C%2FmxCell%3E%3CmxCell%20id%3D%224%22%20value%3D%22%E5%82%A8%E6%88%B7%22%20style%3D%22text%3Bhtml%3D1%3Balign%3Dcenter%3BverticalAlign%3Dmiddle%3BwhiteSpace%3Dwrap%3Brounded%3D0%3BfontFamily%3DHelvetica%3BfontSize%3D14%3BfontColor%3Ddefault%3BstrokeWidth%3D2%3B%22%20vertex%3D%221%22%20parent%3D%221%22%3E%3CmxGeometry%20x%3D%2293%22%20y%3D%22241%22%20width%3D%2260%22%20height%3D%2230%22%20as%3D%22geometry%22%2F%3E%3C%2FmxCell%3E%3C%2Froot%3E%3C%2FmxGraphModel%3&lt;/span&gt;" style="text;html=1;align=center;verticalAlign=middle;whiteSpace=wrap;rounded=0;fontFamily=Helvetica;fontSize=14;fontColor=default;labelBackgroundColor=default;" vertex="1" parent="1">
          <mxGeometry x="404" y="81" width="60" height="30" as="geometry" />
        </mxCell>
        <mxCell id="oPK-tAkvvweWWnvE1Nti-54" value="存款存单&lt;span style=&quot;color: rgba(0, 0, 0, 0); font-family: monospace; font-size: 0px; text-align: start; text-wrap: nowrap;&quot;&gt;%3CmxGraphModel%3E%3Croot%3E%3CmxCell%20id%3D%220%22%2F%3E%3CmxCell%20id%3D%221%22%20parent%3D%220%22%2F%3E%3CmxCell%20id%3D%222%22%20value%3D%22%22%20style%3D%22whiteSpace%3Dwrap%3Bhtml%3D1%3Baspect%3Dfixed%3BstrokeWidth%3D2%3B%22%20vertex%3D%221%22%20parent%3D%221%22%3E%3CmxGeometry%20x%3D%2280%22%20y%3D%22216%22%20width%3D%2280%22%20height%3D%2280%22%20as%3D%22geometry%22%2F%3E%3C%2FmxCell%3E%3CmxCell%20id%3D%223%22%20value%3D%22%22%20style%3D%22endArrow%3Dnone%3Bhtml%3D1%3Brounded%3D0%3BfontFamily%3DHelvetica%3BfontSize%3D12%3BfontColor%3Ddefault%3B%22%20edge%3D%221%22%20parent%3D%221%22%3E%3CmxGeometry%20width%3D%2250%22%20height%3D%2250%22%20relative%3D%221%22%20as%3D%22geometry%22%3E%3CmxPoint%20x%3D%22110%22%20y%3D%22297%22%20as%3D%22sourcePoint%22%2F%3E%3CmxPoint%20x%3D%22160%22%20y%3D%22247%22%20as%3D%22targetPoint%22%2F%3E%3C%2FmxGeometry%3E%3C%2FmxCell%3E%3CmxCell%20id%3D%224%22%20value%3D%22%E5%82%A8%E6%88%B7%22%20style%3D%22text%3Bhtml%3D1%3Balign%3Dcenter%3BverticalAlign%3Dmiddle%3BwhiteSpace%3Dwrap%3Brounded%3D0%3BfontFamily%3DHelvetica%3BfontSize%3D14%3BfontColor%3Ddefault%3BstrokeWidth%3D2%3B%22%20vertex%3D%221%22%20parent%3D%221%22%3E%3CmxGeometry%20x%3D%2293%22%20y%3D%22241%22%20width%3D%2260%22%20height%3D%2230%22%20as%3D%22geometry%22%2F%3E%3C%2FmxCell%3E%3C%2Froot%3E%3C%2FmxGraphModel&lt;/span&gt;" style="text;html=1;align=center;verticalAlign=middle;whiteSpace=wrap;rounded=0;fontFamily=Helvetica;fontSize=14;fontColor=default;labelBackgroundColor=default;" vertex="1" parent="1">
          <mxGeometry x="599" y="81" width="60" height="30" as="geometry" />
        </mxCell>
        <mxCell id="oPK-tAkvvweWWnvE1Nti-55" value="" style="endArrow=classic;startArrow=classic;html=1;rounded=0;strokeColor=default;strokeWidth=2;align=center;verticalAlign=middle;fontFamily=Helvetica;fontSize=14;fontColor=default;labelBackgroundColor=default;exitX=0.25;exitY=0;exitDx=0;exitDy=0;" edge="1" parent="1" source="oPK-tAkvvweWWnvE1Nti-34" target="oPK-tAkvvweWWnvE1Nti-40">
          <mxGeometry width="50" height="50" relative="1" as="geometry">
            <mxPoint x="742" y="256" as="sourcePoint" />
            <mxPoint x="742" y="172" as="targetPoint" />
          </mxGeometry>
        </mxCell>
        <mxCell id="oPK-tAkvvweWWnvE1Nti-56" value="利息清单" style="text;html=1;align=center;verticalAlign=middle;whiteSpace=wrap;rounded=0;fontFamily=Helvetica;fontSize=14;fontColor=default;labelBackgroundColor=default;" vertex="1" parent="1">
          <mxGeometry x="733" y="201" width="60" height="30" as="geometry" />
        </mxCell>
        <mxCell id="oPK-tAkvvweWWnvE1Nti-57" value="" style="html=1;dashed=0;whiteSpace=wrap;shape=mxgraph.dfd.dataStoreID;align=left;spacingLeft=3;points=[[0,0],[0.5,0],[1,0],[0,0.5],[1,0.5],[0,1],[0.5,1],[1,1]];rounded=0;strokeWidth=2;verticalAlign=middle;fontFamily=Helvetica;fontSize=14;fontColor=default;labelBackgroundColor=default;fillColor=none;gradientColor=none;" vertex="1" parent="1">
          <mxGeometry x="288.5" y="219" width="100" height="30" as="geometry" />
        </mxCell>
        <mxCell id="oPK-tAkvvweWWnvE1Nti-58" value="存款信息" style="text;html=1;align=center;verticalAlign=middle;whiteSpace=wrap;rounded=0;fontFamily=Helvetica;fontSize=14;fontColor=default;labelBackgroundColor=default;" vertex="1" parent="1">
          <mxGeometry x="326" y="219" width="60" height="30" as="geometry" />
        </mxCell>
        <mxCell id="oPK-tAkvvweWWnvE1Nti-60" value="利息清单" style="text;html=1;align=center;verticalAlign=middle;whiteSpace=wrap;rounded=0;fontFamily=Helvetica;fontSize=14;fontColor=default;labelBackgroundColor=default;" vertex="1" parent="1">
          <mxGeometry x="342" y="178" width="60" height="30" as="geometry" />
        </mxCell>
        <mxCell id="oPK-tAkvvweWWnvE1Nti-61" value="利息清单" style="text;html=1;align=center;verticalAlign=middle;whiteSpace=wrap;rounded=0;fontFamily=Helvetica;fontSize=14;fontColor=default;labelBackgroundColor=default;" vertex="1" parent="1">
          <mxGeometry x="342" y="249" width="60" height="30" as="geometry" />
        </mxCell>
        <mxCell id="oPK-tAkvvweWWnvE1Nti-62" style="edgeStyle=none;rounded=0;orthogonalLoop=1;jettySize=auto;html=1;exitX=0.25;exitY=1;exitDx=0;exitDy=0;entryX=0.622;entryY=0.015;entryDx=0;entryDy=0;entryPerimeter=0;strokeColor=default;strokeWidth=2;align=center;verticalAlign=middle;fontFamily=Helvetica;fontSize=14;fontColor=default;labelBackgroundColor=default;endArrow=classic;" edge="1" parent="1" source="oPK-tAkvvweWWnvE1Nti-58" target="oPK-tAkvvweWWnvE1Nti-26">
          <mxGeometry relative="1" as="geometry" />
        </mxCell>
        <mxCell id="oPK-tAkvvweWWnvE1Nti-100" style="edgeStyle=none;rounded=0;orthogonalLoop=1;jettySize=auto;html=1;exitX=1;exitY=0.5;exitDx=0;exitDy=0;entryX=0;entryY=0.5;entryDx=0;entryDy=0;strokeColor=default;strokeWidth=2;align=center;verticalAlign=middle;fontFamily=Helvetica;fontSize=14;fontColor=default;labelBackgroundColor=default;endArrow=none;endFill=0;" edge="1" parent="1" source="oPK-tAkvvweWWnvE1Nti-63" target="oPK-tAkvvweWWnvE1Nti-66">
          <mxGeometry relative="1" as="geometry" />
        </mxCell>
        <mxCell id="oPK-tAkvvweWWnvE1Nti-63" value="" style="shape=rhombus;html=1;dashed=0;whiteSpace=wrap;perimeter=rhombusPerimeter;rounded=0;strokeWidth=2;align=center;verticalAlign=middle;fontFamily=Helvetica;fontSize=14;fontColor=default;labelBackgroundColor=default;fillColor=none;gradientColor=none;" vertex="1" parent="1">
          <mxGeometry x="444" y="796" width="82" height="41" as="geometry" />
        </mxCell>
        <mxCell id="oPK-tAkvvweWWnvE1Nti-64" value="存取款" style="text;html=1;align=center;verticalAlign=middle;whiteSpace=wrap;rounded=0;fontFamily=Helvetica;fontSize=14;fontColor=default;labelBackgroundColor=default;" vertex="1" parent="1">
          <mxGeometry x="455" y="801.5" width="60" height="30" as="geometry" />
        </mxCell>
        <mxCell id="oPK-tAkvvweWWnvE1Nti-99" style="edgeStyle=none;rounded=0;orthogonalLoop=1;jettySize=auto;html=1;exitX=1;exitY=0.5;exitDx=0;exitDy=0;entryX=0;entryY=0.5;entryDx=0;entryDy=0;strokeColor=default;strokeWidth=2;align=center;verticalAlign=middle;fontFamily=Helvetica;fontSize=14;fontColor=default;labelBackgroundColor=default;endArrow=none;endFill=0;" edge="1" parent="1" source="oPK-tAkvvweWWnvE1Nti-65" target="oPK-tAkvvweWWnvE1Nti-63">
          <mxGeometry relative="1" as="geometry" />
        </mxCell>
        <mxCell id="oPK-tAkvvweWWnvE1Nti-65" value="储户" style="rounded=0;whiteSpace=wrap;html=1;strokeWidth=2;align=center;verticalAlign=middle;fontFamily=Helvetica;fontSize=14;fontColor=default;labelBackgroundColor=default;fillColor=none;gradientColor=none;" vertex="1" parent="1">
          <mxGeometry x="308.5" y="799" width="85.5" height="35" as="geometry" />
        </mxCell>
        <mxCell id="oPK-tAkvvweWWnvE1Nti-66" value="储蓄所" style="rounded=0;whiteSpace=wrap;html=1;strokeWidth=2;align=center;verticalAlign=middle;fontFamily=Helvetica;fontSize=14;fontColor=default;labelBackgroundColor=default;fillColor=none;gradientColor=none;" vertex="1" parent="1">
          <mxGeometry x="578" y="796" width="84" height="35" as="geometry" />
        </mxCell>
        <mxCell id="oPK-tAkvvweWWnvE1Nti-121" style="edgeStyle=none;rounded=0;orthogonalLoop=1;jettySize=auto;html=1;exitX=0.5;exitY=1;exitDx=0;exitDy=0;exitPerimeter=0;entryX=0.5;entryY=0;entryDx=0;entryDy=0;strokeColor=default;strokeWidth=2;align=center;verticalAlign=middle;fontFamily=Helvetica;fontSize=14;fontColor=default;labelBackgroundColor=default;endArrow=none;endFill=0;" edge="1" parent="1" source="oPK-tAkvvweWWnvE1Nti-67" target="oPK-tAkvvweWWnvE1Nti-65">
          <mxGeometry relative="1" as="geometry" />
        </mxCell>
        <mxCell id="oPK-tAkvvweWWnvE1Nti-67" value="" style="strokeWidth=2;html=1;shape=mxgraph.flowchart.terminator;whiteSpace=wrap;rounded=0;align=center;verticalAlign=middle;fontFamily=Helvetica;fontSize=14;fontColor=default;labelBackgroundColor=default;fillColor=none;gradientColor=none;" vertex="1" parent="1">
          <mxGeometry x="375" y="674" width="99" height="36" as="geometry" />
        </mxCell>
        <mxCell id="oPK-tAkvvweWWnvE1Nti-68" value="身份证号码" style="text;html=1;align=center;verticalAlign=middle;whiteSpace=wrap;rounded=0;fontFamily=Helvetica;fontSize=14;fontColor=default;labelBackgroundColor=default;" vertex="1" parent="1">
          <mxGeometry x="382.5" y="680" width="79.5" height="22" as="geometry" />
        </mxCell>
        <mxCell id="oPK-tAkvvweWWnvE1Nti-123" style="edgeStyle=none;rounded=0;orthogonalLoop=1;jettySize=auto;html=1;exitX=0.5;exitY=1;exitDx=0;exitDy=0;exitPerimeter=0;strokeColor=default;strokeWidth=2;align=center;verticalAlign=middle;fontFamily=Helvetica;fontSize=14;fontColor=default;labelBackgroundColor=default;endArrow=none;endFill=0;" edge="1" parent="1" source="oPK-tAkvvweWWnvE1Nti-71">
          <mxGeometry relative="1" as="geometry">
            <mxPoint x="609.8923797607422" y="795.4514923095703" as="targetPoint" />
          </mxGeometry>
        </mxCell>
        <mxCell id="oPK-tAkvvweWWnvE1Nti-71" value="" style="strokeWidth=2;html=1;shape=mxgraph.flowchart.terminator;whiteSpace=wrap;rounded=0;align=center;verticalAlign=middle;fontFamily=Helvetica;fontSize=14;fontColor=default;labelBackgroundColor=default;fillColor=none;gradientColor=none;" vertex="1" parent="1">
          <mxGeometry x="640" y="643" width="63" height="34" as="geometry" />
        </mxCell>
        <mxCell id="oPK-tAkvvweWWnvE1Nti-72" value="地址" style="text;html=1;align=center;verticalAlign=middle;whiteSpace=wrap;rounded=0;fontFamily=Helvetica;fontSize=14;fontColor=default;labelBackgroundColor=default;" vertex="1" parent="1">
          <mxGeometry x="641.5" y="643" width="60" height="30" as="geometry" />
        </mxCell>
        <mxCell id="oPK-tAkvvweWWnvE1Nti-118" style="edgeStyle=none;rounded=0;orthogonalLoop=1;jettySize=auto;html=1;exitX=0.5;exitY=1;exitDx=0;exitDy=0;exitPerimeter=0;strokeColor=default;strokeWidth=2;align=center;verticalAlign=middle;fontFamily=Helvetica;fontSize=14;fontColor=default;labelBackgroundColor=default;endArrow=none;endFill=0;" edge="1" parent="1" source="oPK-tAkvvweWWnvE1Nti-73" target="oPK-tAkvvweWWnvE1Nti-65">
          <mxGeometry relative="1" as="geometry" />
        </mxCell>
        <mxCell id="oPK-tAkvvweWWnvE1Nti-73" value="" style="strokeWidth=2;html=1;shape=mxgraph.flowchart.terminator;whiteSpace=wrap;rounded=0;align=center;verticalAlign=middle;fontFamily=Helvetica;fontSize=14;fontColor=default;labelBackgroundColor=default;fillColor=none;gradientColor=none;" vertex="1" parent="1">
          <mxGeometry x="259" y="660" width="84" height="37" as="geometry" />
        </mxCell>
        <mxCell id="oPK-tAkvvweWWnvE1Nti-74" value="电话号码" style="text;html=1;align=center;verticalAlign=middle;whiteSpace=wrap;rounded=0;fontFamily=Helvetica;fontSize=14;fontColor=default;labelBackgroundColor=default;" vertex="1" parent="1">
          <mxGeometry x="268.75" y="664.5" width="64.5" height="28" as="geometry" />
        </mxCell>
        <mxCell id="oPK-tAkvvweWWnvE1Nti-75" value="" style="strokeWidth=2;html=1;shape=mxgraph.flowchart.terminator;whiteSpace=wrap;rounded=0;align=center;verticalAlign=middle;fontFamily=Helvetica;fontSize=14;fontColor=default;labelBackgroundColor=default;fillColor=none;gradientColor=none;" vertex="1" parent="1">
          <mxGeometry x="178" y="725" width="63" height="34" as="geometry" />
        </mxCell>
        <mxCell id="oPK-tAkvvweWWnvE1Nti-76" value="住址" style="text;html=1;align=center;verticalAlign=middle;whiteSpace=wrap;rounded=0;fontFamily=Helvetica;fontSize=14;fontColor=default;labelBackgroundColor=default;" vertex="1" parent="1">
          <mxGeometry x="179.5" y="725" width="60" height="30" as="geometry" />
        </mxCell>
        <mxCell id="oPK-tAkvvweWWnvE1Nti-77" value="" style="strokeWidth=2;html=1;shape=mxgraph.flowchart.terminator;whiteSpace=wrap;rounded=0;align=center;verticalAlign=middle;fontFamily=Helvetica;fontSize=14;fontColor=default;labelBackgroundColor=default;fillColor=none;gradientColor=none;" vertex="1" parent="1">
          <mxGeometry x="187" y="808" width="63" height="34" as="geometry" />
        </mxCell>
        <mxCell id="oPK-tAkvvweWWnvE1Nti-120" style="edgeStyle=none;rounded=0;orthogonalLoop=1;jettySize=auto;html=1;exitX=1;exitY=0.75;exitDx=0;exitDy=0;strokeColor=default;strokeWidth=2;align=center;verticalAlign=middle;fontFamily=Helvetica;fontSize=14;fontColor=default;labelBackgroundColor=default;endArrow=none;endFill=0;" edge="1" parent="1" source="oPK-tAkvvweWWnvE1Nti-78" target="oPK-tAkvvweWWnvE1Nti-65">
          <mxGeometry relative="1" as="geometry" />
        </mxCell>
        <mxCell id="oPK-tAkvvweWWnvE1Nti-78" value="姓名" style="text;html=1;align=center;verticalAlign=middle;whiteSpace=wrap;rounded=0;fontFamily=Helvetica;fontSize=14;fontColor=default;labelBackgroundColor=default;" vertex="1" parent="1">
          <mxGeometry x="188.5" y="808" width="60" height="30" as="geometry" />
        </mxCell>
        <mxCell id="oPK-tAkvvweWWnvE1Nti-79" value="" style="strokeWidth=2;html=1;shape=mxgraph.flowchart.terminator;whiteSpace=wrap;rounded=0;align=center;verticalAlign=middle;fontFamily=Helvetica;fontSize=14;fontColor=default;labelBackgroundColor=default;fillColor=none;gradientColor=none;" vertex="1" parent="1">
          <mxGeometry x="786" y="686" width="63" height="34" as="geometry" />
        </mxCell>
        <mxCell id="oPK-tAkvvweWWnvE1Nti-124" style="edgeStyle=none;rounded=0;orthogonalLoop=1;jettySize=auto;html=1;exitX=0;exitY=1;exitDx=0;exitDy=0;strokeColor=default;strokeWidth=2;align=center;verticalAlign=middle;fontFamily=Helvetica;fontSize=14;fontColor=default;labelBackgroundColor=default;endArrow=none;endFill=0;" edge="1" parent="1" source="oPK-tAkvvweWWnvE1Nti-80">
          <mxGeometry relative="1" as="geometry">
            <mxPoint x="612.6701507568359" y="792.1181488037109" as="targetPoint" />
          </mxGeometry>
        </mxCell>
        <mxCell id="oPK-tAkvvweWWnvE1Nti-80" value="电话号码" style="text;html=1;align=center;verticalAlign=middle;whiteSpace=wrap;rounded=0;fontFamily=Helvetica;fontSize=14;fontColor=default;labelBackgroundColor=default;" vertex="1" parent="1">
          <mxGeometry x="787.5" y="686" width="60" height="30" as="geometry" />
        </mxCell>
        <mxCell id="oPK-tAkvvweWWnvE1Nti-81" value="名称" style="strokeWidth=2;html=1;shape=mxgraph.flowchart.terminator;whiteSpace=wrap;rounded=0;align=center;verticalAlign=middle;fontFamily=Helvetica;fontSize=14;fontColor=default;labelBackgroundColor=default;fillColor=none;gradientColor=none;" vertex="1" parent="1">
          <mxGeometry x="546" y="652" width="63" height="34" as="geometry" />
        </mxCell>
        <mxCell id="oPK-tAkvvweWWnvE1Nti-112" style="edgeStyle=none;rounded=0;orthogonalLoop=1;jettySize=auto;html=1;exitX=0.5;exitY=0;exitDx=0;exitDy=0;exitPerimeter=0;entryX=0.75;entryY=1;entryDx=0;entryDy=0;strokeColor=default;strokeWidth=2;align=center;verticalAlign=middle;fontFamily=Helvetica;fontSize=14;fontColor=default;labelBackgroundColor=default;endArrow=none;endFill=0;" edge="1" parent="1">
          <mxGeometry relative="1" as="geometry">
            <mxPoint x="696.5" y="932.5" as="sourcePoint" />
            <mxPoint x="506.5" y="829" as="targetPoint" />
          </mxGeometry>
        </mxCell>
        <mxCell id="oPK-tAkvvweWWnvE1Nti-83" value="密码" style="strokeWidth=2;html=1;shape=mxgraph.flowchart.terminator;whiteSpace=wrap;rounded=0;align=center;verticalAlign=middle;fontFamily=Helvetica;fontSize=14;fontColor=default;labelBackgroundColor=default;fillColor=none;gradientColor=none;" vertex="1" parent="1">
          <mxGeometry x="658.5" y="935" width="63" height="34" as="geometry" />
        </mxCell>
        <mxCell id="oPK-tAkvvweWWnvE1Nti-110" style="edgeStyle=none;rounded=0;orthogonalLoop=1;jettySize=auto;html=1;exitX=0.5;exitY=0;exitDx=0;exitDy=0;exitPerimeter=0;strokeColor=default;strokeWidth=2;align=center;verticalAlign=middle;fontFamily=Helvetica;fontSize=14;fontColor=default;labelBackgroundColor=default;endArrow=none;endFill=0;" edge="1" parent="1" source="oPK-tAkvvweWWnvE1Nti-85">
          <mxGeometry relative="1" as="geometry">
            <mxPoint x="470.4479217529297" y="830.4514923095703" as="targetPoint" />
          </mxGeometry>
        </mxCell>
        <mxCell id="oPK-tAkvvweWWnvE1Nti-85" value="" style="strokeWidth=2;html=1;shape=mxgraph.flowchart.terminator;whiteSpace=wrap;rounded=0;align=center;verticalAlign=middle;fontFamily=Helvetica;fontSize=14;fontColor=default;labelBackgroundColor=default;fillColor=none;gradientColor=none;" vertex="1" parent="1">
          <mxGeometry x="260.5" y="952" width="63" height="34" as="geometry" />
        </mxCell>
        <mxCell id="oPK-tAkvvweWWnvE1Nti-86" value="数额" style="text;html=1;align=center;verticalAlign=middle;whiteSpace=wrap;rounded=0;fontFamily=Helvetica;fontSize=14;fontColor=default;labelBackgroundColor=default;" vertex="1" parent="1">
          <mxGeometry x="262" y="952" width="60" height="30" as="geometry" />
        </mxCell>
        <mxCell id="oPK-tAkvvweWWnvE1Nti-109" style="edgeStyle=none;rounded=0;orthogonalLoop=1;jettySize=auto;html=1;exitX=0.5;exitY=0;exitDx=0;exitDy=0;exitPerimeter=0;entryX=0.25;entryY=1;entryDx=0;entryDy=0;strokeColor=default;strokeWidth=2;align=center;verticalAlign=middle;fontFamily=Helvetica;fontSize=14;fontColor=default;labelBackgroundColor=default;endArrow=none;endFill=0;" edge="1" parent="1" source="oPK-tAkvvweWWnvE1Nti-87" target="oPK-tAkvvweWWnvE1Nti-64">
          <mxGeometry relative="1" as="geometry" />
        </mxCell>
        <mxCell id="oPK-tAkvvweWWnvE1Nti-87" value="" style="strokeWidth=2;html=1;shape=mxgraph.flowchart.terminator;whiteSpace=wrap;rounded=0;align=center;verticalAlign=middle;fontFamily=Helvetica;fontSize=14;fontColor=default;labelBackgroundColor=default;fillColor=none;gradientColor=none;" vertex="1" parent="1">
          <mxGeometry x="381" y="948" width="63" height="34" as="geometry" />
        </mxCell>
        <mxCell id="oPK-tAkvvweWWnvE1Nti-88" value="类型" style="text;html=1;align=center;verticalAlign=middle;whiteSpace=wrap;rounded=0;fontFamily=Helvetica;fontSize=14;fontColor=default;labelBackgroundColor=default;" vertex="1" parent="1">
          <mxGeometry x="382.5" y="948" width="60" height="30" as="geometry" />
        </mxCell>
        <mxCell id="oPK-tAkvvweWWnvE1Nti-108" style="edgeStyle=none;rounded=0;orthogonalLoop=1;jettySize=auto;html=1;exitX=0.5;exitY=0;exitDx=0;exitDy=0;exitPerimeter=0;entryX=0.5;entryY=1;entryDx=0;entryDy=0;strokeColor=default;strokeWidth=2;align=center;verticalAlign=middle;fontFamily=Helvetica;fontSize=14;fontColor=default;labelBackgroundColor=default;endArrow=none;endFill=0;" edge="1" parent="1" source="oPK-tAkvvweWWnvE1Nti-89" target="oPK-tAkvvweWWnvE1Nti-63">
          <mxGeometry relative="1" as="geometry" />
        </mxCell>
        <mxCell id="oPK-tAkvvweWWnvE1Nti-89" value="" style="strokeWidth=2;html=1;shape=mxgraph.flowchart.terminator;whiteSpace=wrap;rounded=0;align=center;verticalAlign=middle;fontFamily=Helvetica;fontSize=14;fontColor=default;labelBackgroundColor=default;fillColor=none;gradientColor=none;" vertex="1" parent="1">
          <mxGeometry x="472" y="942.5" width="75" height="37" as="geometry" />
        </mxCell>
        <mxCell id="oPK-tAkvvweWWnvE1Nti-90" value="到期日期" style="text;html=1;align=center;verticalAlign=middle;whiteSpace=wrap;rounded=0;fontFamily=Helvetica;fontSize=14;fontColor=default;labelBackgroundColor=default;" vertex="1" parent="1">
          <mxGeometry x="479.5" y="944" width="60" height="30" as="geometry" />
        </mxCell>
        <mxCell id="oPK-tAkvvweWWnvE1Nti-91" value="" style="strokeWidth=2;html=1;shape=mxgraph.flowchart.terminator;whiteSpace=wrap;rounded=0;align=center;verticalAlign=middle;fontFamily=Helvetica;fontSize=14;fontColor=default;labelBackgroundColor=default;fillColor=none;gradientColor=none;" vertex="1" parent="1">
          <mxGeometry x="570" y="944" width="63" height="34" as="geometry" />
        </mxCell>
        <mxCell id="oPK-tAkvvweWWnvE1Nti-92" value="利率" style="text;html=1;align=center;verticalAlign=middle;whiteSpace=wrap;rounded=0;fontFamily=Helvetica;fontSize=14;fontColor=default;labelBackgroundColor=default;" vertex="1" parent="1">
          <mxGeometry x="571.5" y="944" width="60" height="30" as="geometry" />
        </mxCell>
        <mxCell id="oPK-tAkvvweWWnvE1Nti-111" style="edgeStyle=none;rounded=0;orthogonalLoop=1;jettySize=auto;html=1;exitX=0.25;exitY=0;exitDx=0;exitDy=0;entryX=0.887;entryY=1.002;entryDx=0;entryDy=0;entryPerimeter=0;strokeColor=default;strokeWidth=2;align=center;verticalAlign=middle;fontFamily=Helvetica;fontSize=14;fontColor=default;labelBackgroundColor=default;endArrow=none;endFill=0;" edge="1" parent="1" source="oPK-tAkvvweWWnvE1Nti-92" target="oPK-tAkvvweWWnvE1Nti-64">
          <mxGeometry relative="1" as="geometry" />
        </mxCell>
        <mxCell id="oPK-tAkvvweWWnvE1Nti-114" value="M" style="text;html=1;align=center;verticalAlign=middle;resizable=0;points=[];autosize=1;strokeColor=none;fillColor=none;fontFamily=Helvetica;fontSize=14;fontColor=default;labelBackgroundColor=default;" vertex="1" parent="1">
          <mxGeometry x="405" y="786" width="30" height="29" as="geometry" />
        </mxCell>
        <mxCell id="oPK-tAkvvweWWnvE1Nti-117" value="N" style="text;html=1;align=center;verticalAlign=middle;resizable=0;points=[];autosize=1;strokeColor=none;fillColor=none;fontFamily=Helvetica;fontSize=14;fontColor=default;labelBackgroundColor=default;" vertex="1" parent="1">
          <mxGeometry x="529" y="787" width="28" height="29" as="geometry" />
        </mxCell>
        <mxCell id="oPK-tAkvvweWWnvE1Nti-119" style="edgeStyle=none;rounded=0;orthogonalLoop=1;jettySize=auto;html=1;exitX=0.75;exitY=1;exitDx=0;exitDy=0;entryX=0.393;entryY=-0.054;entryDx=0;entryDy=0;entryPerimeter=0;strokeColor=default;strokeWidth=2;align=center;verticalAlign=middle;fontFamily=Helvetica;fontSize=14;fontColor=default;labelBackgroundColor=default;endArrow=none;endFill=0;" edge="1" parent="1" source="oPK-tAkvvweWWnvE1Nti-76" target="oPK-tAkvvweWWnvE1Nti-65">
          <mxGeometry relative="1" as="geometry" />
        </mxCell>
        <mxCell id="oPK-tAkvvweWWnvE1Nti-122" style="edgeStyle=none;rounded=0;orthogonalLoop=1;jettySize=auto;html=1;exitX=0.5;exitY=1;exitDx=0;exitDy=0;exitPerimeter=0;entryX=0.36;entryY=0.064;entryDx=0;entryDy=0;entryPerimeter=0;strokeColor=default;strokeWidth=2;align=center;verticalAlign=middle;fontFamily=Helvetica;fontSize=14;fontColor=default;labelBackgroundColor=default;endArrow=none;endFill=0;" edge="1" parent="1" source="oPK-tAkvvweWWnvE1Nti-81" target="oPK-tAkvvweWWnvE1Nti-66">
          <mxGeometry relative="1" as="geometry" />
        </mxCell>
        <mxCell id="oPK-tAkvvweWWnvE1Nti-142" style="edgeStyle=none;rounded=0;orthogonalLoop=1;jettySize=auto;html=1;exitX=0.5;exitY=1;exitDx=0;exitDy=0;entryX=0.75;entryY=0;entryDx=0;entryDy=0;strokeColor=default;strokeWidth=2;align=center;verticalAlign=middle;fontFamily=Helvetica;fontSize=14;fontColor=default;labelBackgroundColor=default;endArrow=classic;endFill=1;" edge="1" parent="1" source="oPK-tAkvvweWWnvE1Nti-125" target="oPK-tAkvvweWWnvE1Nti-137">
          <mxGeometry relative="1" as="geometry" />
        </mxCell>
        <mxCell id="oPK-tAkvvweWWnvE1Nti-125" value="D1" style="html=1;dashed=0;whiteSpace=wrap;shape=mxgraph.dfd.dataStoreID;align=left;spacingLeft=3;points=[[0,0],[0.5,0],[1,0],[0,0.5],[1,0.5],[0,1],[0.5,1],[1,1]];rounded=0;strokeWidth=2;verticalAlign=middle;fontFamily=Helvetica;fontSize=14;fontColor=default;labelBackgroundColor=default;fillColor=none;gradientColor=none;" vertex="1" parent="1">
          <mxGeometry x="703" y="-346" width="100" height="30" as="geometry" />
        </mxCell>
        <mxCell id="oPK-tAkvvweWWnvE1Nti-132" style="edgeStyle=none;rounded=0;orthogonalLoop=1;jettySize=auto;html=1;exitX=1;exitY=0.5;exitDx=0;exitDy=0;strokeColor=default;strokeWidth=2;align=center;verticalAlign=middle;fontFamily=Helvetica;fontSize=14;fontColor=default;labelBackgroundColor=default;endArrow=classic;endFill=1;" edge="1" parent="1" source="oPK-tAkvvweWWnvE1Nti-127">
          <mxGeometry relative="1" as="geometry">
            <mxPoint x="285.4479217529297" y="-189" as="targetPoint" />
          </mxGeometry>
        </mxCell>
        <mxCell id="oPK-tAkvvweWWnvE1Nti-127" value="教师或学生" style="html=1;dashed=0;whiteSpace=wrap;rounded=0;strokeWidth=2;align=center;verticalAlign=middle;fontFamily=Helvetica;fontSize=14;fontColor=default;labelBackgroundColor=default;fillColor=none;gradientColor=none;" vertex="1" parent="1">
          <mxGeometry x="131" y="-230" width="78" height="81" as="geometry" />
        </mxCell>
        <mxCell id="oPK-tAkvvweWWnvE1Nti-136" style="edgeStyle=none;rounded=0;orthogonalLoop=1;jettySize=auto;html=1;exitX=1;exitY=0.5;exitDx=0;exitDy=0;entryX=0;entryY=0.5;entryDx=0;entryDy=0;strokeColor=default;strokeWidth=2;align=center;verticalAlign=middle;fontFamily=Helvetica;fontSize=14;fontColor=default;labelBackgroundColor=default;endArrow=classic;endFill=1;" edge="1" parent="1" source="oPK-tAkvvweWWnvE1Nti-128" target="oPK-tAkvvweWWnvE1Nti-133">
          <mxGeometry relative="1" as="geometry" />
        </mxCell>
        <mxCell id="oPK-tAkvvweWWnvE1Nti-128" value="审核书单" style="rounded=1;whiteSpace=wrap;html=1;strokeWidth=2;fontSize=14;horizontal=1;" vertex="1" parent="1">
          <mxGeometry x="287" y="-247.5" width="107" height="116" as="geometry" />
        </mxCell>
        <mxCell id="oPK-tAkvvweWWnvE1Nti-129" value="" style="line;strokeWidth=2;html=1;strokeColor=default;align=center;verticalAlign=middle;fontFamily=Helvetica;fontSize=12;fontColor=default;fillColor=default;" vertex="1" parent="1">
          <mxGeometry x="286.75" y="-220.5" width="106" height="10" as="geometry" />
        </mxCell>
        <mxCell id="oPK-tAkvvweWWnvE1Nti-130" value="1" style="text;html=1;align=center;verticalAlign=middle;whiteSpace=wrap;rounded=0;fontFamily=Helvetica;fontSize=12;fontColor=default;" vertex="1" parent="1">
          <mxGeometry x="309.75" y="-247.5" width="60" height="30" as="geometry" />
        </mxCell>
        <mxCell id="oPK-tAkvvweWWnvE1Nti-133" value="开发票、登记" style="rounded=1;whiteSpace=wrap;html=1;strokeWidth=2;fontSize=14;horizontal=1;" vertex="1" parent="1">
          <mxGeometry x="448.5" y="-247.5" width="107" height="116" as="geometry" />
        </mxCell>
        <mxCell id="oPK-tAkvvweWWnvE1Nti-134" value="" style="line;strokeWidth=2;html=1;strokeColor=default;align=center;verticalAlign=middle;fontFamily=Helvetica;fontSize=12;fontColor=default;fillColor=default;" vertex="1" parent="1">
          <mxGeometry x="448.25" y="-220.5" width="106" height="10" as="geometry" />
        </mxCell>
        <mxCell id="oPK-tAkvvweWWnvE1Nti-135" value="2" style="text;html=1;align=center;verticalAlign=middle;whiteSpace=wrap;rounded=0;fontFamily=Helvetica;fontSize=12;fontColor=default;" vertex="1" parent="1">
          <mxGeometry x="471.25" y="-247.5" width="60" height="30" as="geometry" />
        </mxCell>
        <mxCell id="oPK-tAkvvweWWnvE1Nti-141" style="edgeStyle=none;rounded=0;orthogonalLoop=1;jettySize=auto;html=1;exitX=0;exitY=0;exitDx=0;exitDy=0;entryX=0;entryY=0.5;entryDx=0;entryDy=0;strokeColor=default;strokeWidth=2;align=center;verticalAlign=middle;fontFamily=Helvetica;fontSize=14;fontColor=default;labelBackgroundColor=default;endArrow=classic;endFill=1;" edge="1" parent="1" source="oPK-tAkvvweWWnvE1Nti-137" target="oPK-tAkvvweWWnvE1Nti-125">
          <mxGeometry relative="1" as="geometry" />
        </mxCell>
        <mxCell id="oPK-tAkvvweWWnvE1Nti-137" value="教师或学生" style="html=1;dashed=0;whiteSpace=wrap;rounded=0;strokeWidth=2;align=center;verticalAlign=middle;fontFamily=Helvetica;fontSize=14;fontColor=default;labelBackgroundColor=default;fillColor=none;gradientColor=none;" vertex="1" parent="1">
          <mxGeometry x="631" y="-220.5" width="78" height="81" as="geometry" />
        </mxCell>
        <mxCell id="oPK-tAkvvweWWnvE1Nti-138" style="edgeStyle=none;rounded=0;orthogonalLoop=1;jettySize=auto;html=1;exitX=1;exitY=0.5;exitDx=0;exitDy=0;entryX=-0.05;entryY=0.389;entryDx=0;entryDy=0;entryPerimeter=0;strokeColor=default;strokeWidth=2;align=center;verticalAlign=middle;fontFamily=Helvetica;fontSize=14;fontColor=default;labelBackgroundColor=default;endArrow=classic;endFill=1;" edge="1" parent="1" source="oPK-tAkvvweWWnvE1Nti-133" target="oPK-tAkvvweWWnvE1Nti-137">
          <mxGeometry relative="1" as="geometry" />
        </mxCell>
        <mxCell id="oPK-tAkvvweWWnvE1Nti-143" value="发票" style="text;html=1;align=center;verticalAlign=middle;resizable=0;points=[];autosize=1;strokeColor=none;fillColor=none;fontFamily=Helvetica;fontSize=14;fontColor=default;labelBackgroundColor=default;" vertex="1" parent="1">
          <mxGeometry x="632" y="-298" width="46" height="29" as="geometry" />
        </mxCell>
        <mxCell id="oPK-tAkvvweWWnvE1Nti-144" value="书单" style="text;html=1;align=center;verticalAlign=middle;resizable=0;points=[];autosize=1;strokeColor=none;fillColor=none;fontFamily=Helvetica;fontSize=14;fontColor=default;labelBackgroundColor=default;" vertex="1" parent="1">
          <mxGeometry x="395" y="-218" width="46" height="29" as="geometry" />
        </mxCell>
        <mxCell id="oPK-tAkvvweWWnvE1Nti-145" value="发票" style="text;html=1;align=center;verticalAlign=middle;resizable=0;points=[];autosize=1;strokeColor=none;fillColor=none;fontFamily=Helvetica;fontSize=14;fontColor=default;labelBackgroundColor=default;" vertex="1" parent="1">
          <mxGeometry x="568" y="-217.5" width="46" height="29" as="geometry" />
        </mxCell>
        <mxCell id="oPK-tAkvvweWWnvE1Nti-146" value="教材" style="text;html=1;align=center;verticalAlign=middle;resizable=0;points=[];autosize=1;strokeColor=none;fillColor=none;fontFamily=Helvetica;fontSize=14;fontColor=default;labelBackgroundColor=default;" vertex="1" parent="1">
          <mxGeometry x="710" y="-280" width="46" height="29" as="geometry" />
        </mxCell>
        <mxCell id="oPK-tAkvvweWWnvE1Nti-147" value="库存表" style="text;html=1;align=center;verticalAlign=middle;whiteSpace=wrap;rounded=0;fontFamily=Helvetica;fontSize=14;fontColor=default;labelBackgroundColor=default;" vertex="1" parent="1">
          <mxGeometry x="738" y="-346" width="60" height="30" as="geometry" />
        </mxCell>
        <mxCell id="oPK-tAkvvweWWnvE1Nti-175" style="edgeStyle=none;rounded=0;orthogonalLoop=1;jettySize=auto;html=1;exitX=1;exitY=0;exitDx=0;exitDy=0;entryX=0;entryY=0.5;entryDx=0;entryDy=0;strokeColor=default;strokeWidth=2;align=center;verticalAlign=middle;fontFamily=Helvetica;fontSize=14;fontColor=default;labelBackgroundColor=default;endArrow=classic;endFill=1;" edge="1" parent="1" source="oPK-tAkvvweWWnvE1Nti-149" target="oPK-tAkvvweWWnvE1Nti-173">
          <mxGeometry relative="1" as="geometry" />
        </mxCell>
        <mxCell id="oPK-tAkvvweWWnvE1Nti-149" value="发行人员" style="html=1;dashed=0;whiteSpace=wrap;rounded=0;strokeWidth=2;align=center;verticalAlign=middle;fontFamily=Helvetica;fontSize=14;fontColor=default;labelBackgroundColor=default;fillColor=none;gradientColor=none;" vertex="1" parent="1">
          <mxGeometry x="169" y="-892.5" width="78" height="81" as="geometry" />
        </mxCell>
        <mxCell id="oPK-tAkvvweWWnvE1Nti-198" style="rounded=0;orthogonalLoop=1;jettySize=auto;html=1;exitX=1;exitY=0.25;exitDx=0;exitDy=0;entryX=0;entryY=1;entryDx=0;entryDy=0;strokeColor=default;strokeWidth=2;align=center;verticalAlign=middle;fontFamily=Helvetica;fontSize=14;fontColor=default;labelBackgroundColor=default;endArrow=classic;endFill=1;" edge="1" parent="1" source="oPK-tAkvvweWWnvE1Nti-151" target="oPK-tAkvvweWWnvE1Nti-196">
          <mxGeometry relative="1" as="geometry" />
        </mxCell>
        <mxCell id="oPK-tAkvvweWWnvE1Nti-151" value="登记缺书" style="rounded=1;whiteSpace=wrap;html=1;strokeWidth=2;fontSize=14;horizontal=1;" vertex="1" parent="1">
          <mxGeometry x="383.25" y="-892.5" width="107" height="116" as="geometry" />
        </mxCell>
        <mxCell id="oPK-tAkvvweWWnvE1Nti-152" value="" style="line;strokeWidth=2;html=1;strokeColor=default;align=center;verticalAlign=middle;fontFamily=Helvetica;fontSize=12;fontColor=default;fillColor=default;" vertex="1" parent="1">
          <mxGeometry x="383" y="-865.5" width="106" height="10" as="geometry" />
        </mxCell>
        <mxCell id="oPK-tAkvvweWWnvE1Nti-153" value="1" style="text;html=1;align=center;verticalAlign=middle;whiteSpace=wrap;rounded=0;fontFamily=Helvetica;fontSize=12;fontColor=default;" vertex="1" parent="1">
          <mxGeometry x="406" y="-892.5" width="60" height="30" as="geometry" />
        </mxCell>
        <mxCell id="oPK-tAkvvweWWnvE1Nti-161" value="脱销" style="text;html=1;align=center;verticalAlign=middle;resizable=0;points=[];autosize=1;strokeColor=none;fillColor=none;fontFamily=Helvetica;fontSize=14;fontColor=default;labelBackgroundColor=default;" vertex="1" parent="1">
          <mxGeometry x="244.5" y="-947" width="46" height="29" as="geometry" />
        </mxCell>
        <mxCell id="oPK-tAkvvweWWnvE1Nti-170" style="edgeStyle=none;rounded=0;orthogonalLoop=1;jettySize=auto;html=1;exitX=0.5;exitY=1;exitDx=0;exitDy=0;entryX=0.25;entryY=0;entryDx=0;entryDy=0;strokeColor=default;strokeWidth=2;align=center;verticalAlign=middle;fontFamily=Helvetica;fontSize=14;fontColor=default;labelBackgroundColor=default;endArrow=classic;endFill=1;" edge="1" parent="1" source="oPK-tAkvvweWWnvE1Nti-162" target="oPK-tAkvvweWWnvE1Nti-167">
          <mxGeometry relative="1" as="geometry" />
        </mxCell>
        <mxCell id="oPK-tAkvvweWWnvE1Nti-162" value="采购人员" style="html=1;dashed=0;whiteSpace=wrap;rounded=0;strokeWidth=2;align=center;verticalAlign=middle;fontFamily=Helvetica;fontSize=14;fontColor=default;labelBackgroundColor=default;fillColor=none;gradientColor=none;" vertex="1" parent="1">
          <mxGeometry x="650" y="-869.5" width="78" height="81" as="geometry" />
        </mxCell>
        <mxCell id="oPK-tAkvvweWWnvE1Nti-212" style="edgeStyle=none;rounded=0;orthogonalLoop=1;jettySize=auto;html=1;exitX=0;exitY=1;exitDx=0;exitDy=0;strokeColor=default;strokeWidth=2;align=center;verticalAlign=middle;fontFamily=Helvetica;fontSize=14;fontColor=default;labelBackgroundColor=default;endArrow=classic;endFill=1;" edge="1" parent="1" source="oPK-tAkvvweWWnvE1Nti-163">
          <mxGeometry relative="1" as="geometry">
            <mxPoint x="98.15442971622247" y="-654.723830279182" as="targetPoint" />
          </mxGeometry>
        </mxCell>
        <mxCell id="oPK-tAkvvweWWnvE1Nti-163" value="D4" style="html=1;dashed=0;whiteSpace=wrap;shape=mxgraph.dfd.dataStoreID;align=left;spacingLeft=3;points=[[0,0],[0.5,0],[1,0],[0,0.5],[1,0.5],[0,1],[0.5,1],[1,1]];rounded=0;strokeWidth=2;verticalAlign=middle;fontFamily=Helvetica;fontSize=14;fontColor=default;labelBackgroundColor=default;fillColor=none;gradientColor=none;" vertex="1" parent="1">
          <mxGeometry x="193.75" y="-709" width="100" height="30" as="geometry" />
        </mxCell>
        <mxCell id="oPK-tAkvvweWWnvE1Nti-164" value="库存表" style="text;html=1;align=center;verticalAlign=middle;whiteSpace=wrap;rounded=0;fontFamily=Helvetica;fontSize=14;fontColor=default;labelBackgroundColor=default;" vertex="1" parent="1">
          <mxGeometry x="228.75" y="-709" width="60" height="30" as="geometry" />
        </mxCell>
        <mxCell id="oPK-tAkvvweWWnvE1Nti-202" style="edgeStyle=none;rounded=0;orthogonalLoop=1;jettySize=auto;html=1;exitX=0;exitY=0.5;exitDx=0;exitDy=0;strokeColor=default;strokeWidth=2;align=center;verticalAlign=middle;fontFamily=Helvetica;fontSize=14;fontColor=default;labelBackgroundColor=default;endArrow=classic;endFill=1;" edge="1" parent="1" source="oPK-tAkvvweWWnvE1Nti-165" target="oPK-tAkvvweWWnvE1Nti-201">
          <mxGeometry relative="1" as="geometry" />
        </mxCell>
        <mxCell id="oPK-tAkvvweWWnvE1Nti-165" value="采购新书" style="rounded=1;whiteSpace=wrap;html=1;strokeWidth=2;fontSize=14;horizontal=1;" vertex="1" parent="1">
          <mxGeometry x="744.5" y="-752" width="107" height="116" as="geometry" />
        </mxCell>
        <mxCell id="oPK-tAkvvweWWnvE1Nti-166" value="" style="line;strokeWidth=2;html=1;strokeColor=default;align=center;verticalAlign=middle;fontFamily=Helvetica;fontSize=12;fontColor=default;fillColor=default;" vertex="1" parent="1">
          <mxGeometry x="745.5" y="-727" width="106" height="10" as="geometry" />
        </mxCell>
        <mxCell id="oPK-tAkvvweWWnvE1Nti-167" value="2" style="text;html=1;align=center;verticalAlign=middle;whiteSpace=wrap;rounded=0;fontFamily=Helvetica;fontSize=12;fontColor=default;" vertex="1" parent="1">
          <mxGeometry x="768.5" y="-754" width="60" height="30" as="geometry" />
        </mxCell>
        <mxCell id="oPK-tAkvvweWWnvE1Nti-171" value="采购" style="text;html=1;align=center;verticalAlign=middle;resizable=0;points=[];autosize=1;strokeColor=none;fillColor=none;fontFamily=Helvetica;fontSize=14;fontColor=default;labelBackgroundColor=default;" vertex="1" parent="1">
          <mxGeometry x="588.25" y="-793.5" width="46" height="29" as="geometry" />
        </mxCell>
        <mxCell id="oPK-tAkvvweWWnvE1Nti-173" value="D2" style="html=1;dashed=0;whiteSpace=wrap;shape=mxgraph.dfd.dataStoreID;align=left;spacingLeft=3;points=[[0,0],[0.5,0],[1,0],[0,0.5],[1,0.5],[0,1],[0.5,1],[1,1]];rounded=0;strokeWidth=2;verticalAlign=middle;fontFamily=Helvetica;fontSize=14;fontColor=default;labelBackgroundColor=default;fillColor=none;gradientColor=none;" vertex="1" parent="1">
          <mxGeometry x="310.75" y="-955" width="100" height="30" as="geometry" />
        </mxCell>
        <mxCell id="oPK-tAkvvweWWnvE1Nti-180" style="edgeStyle=none;rounded=0;orthogonalLoop=1;jettySize=auto;html=1;exitX=0.75;exitY=1;exitDx=0;exitDy=0;entryX=0.25;entryY=0;entryDx=0;entryDy=0;strokeColor=default;strokeWidth=2;align=center;verticalAlign=middle;fontFamily=Helvetica;fontSize=14;fontColor=default;labelBackgroundColor=default;endArrow=classic;endFill=1;" edge="1" parent="1" source="oPK-tAkvvweWWnvE1Nti-174" target="oPK-tAkvvweWWnvE1Nti-153">
          <mxGeometry relative="1" as="geometry" />
        </mxCell>
        <mxCell id="oPK-tAkvvweWWnvE1Nti-174" value="缺书登记表" style="text;html=1;align=center;verticalAlign=middle;whiteSpace=wrap;rounded=0;fontFamily=Helvetica;fontSize=14;fontColor=default;labelBackgroundColor=default;" vertex="1" parent="1">
          <mxGeometry x="350.75" y="-955" width="81.25" height="30" as="geometry" />
        </mxCell>
        <mxCell id="oPK-tAkvvweWWnvE1Nti-181" value="脱销" style="text;html=1;align=center;verticalAlign=middle;resizable=0;points=[];autosize=1;strokeColor=none;fillColor=none;fontFamily=Helvetica;fontSize=14;fontColor=default;labelBackgroundColor=default;" vertex="1" parent="1">
          <mxGeometry x="403" y="-929" width="46" height="29" as="geometry" />
        </mxCell>
        <mxCell id="oPK-tAkvvweWWnvE1Nti-189" value="D2" style="html=1;dashed=0;whiteSpace=wrap;shape=mxgraph.dfd.dataStoreID;align=left;spacingLeft=3;points=[[0,0],[0.5,0],[1,0],[0,0.5],[1,0.5],[0,1],[0.5,1],[1,1]];rounded=0;strokeWidth=2;verticalAlign=middle;fontFamily=Helvetica;fontSize=14;fontColor=default;labelBackgroundColor=default;fillColor=none;gradientColor=none;" vertex="1" parent="1">
          <mxGeometry x="36" y="-335" width="100" height="30" as="geometry" />
        </mxCell>
        <mxCell id="oPK-tAkvvweWWnvE1Nti-191" style="edgeStyle=orthogonalEdgeStyle;rounded=0;orthogonalLoop=1;jettySize=auto;html=1;exitX=0.5;exitY=1;exitDx=0;exitDy=0;strokeColor=default;strokeWidth=2;align=center;verticalAlign=middle;fontFamily=Helvetica;fontSize=14;fontColor=default;labelBackgroundColor=default;endArrow=classic;endFill=1;" edge="1" parent="1" source="oPK-tAkvvweWWnvE1Nti-190" target="oPK-tAkvvweWWnvE1Nti-127">
          <mxGeometry relative="1" as="geometry" />
        </mxCell>
        <mxCell id="oPK-tAkvvweWWnvE1Nti-190" value="待购教材" style="text;html=1;align=center;verticalAlign=middle;whiteSpace=wrap;rounded=0;fontFamily=Helvetica;fontSize=14;fontColor=default;labelBackgroundColor=default;" vertex="1" parent="1">
          <mxGeometry x="72" y="-335" width="59" height="30" as="geometry" />
        </mxCell>
        <mxCell id="oPK-tAkvvweWWnvE1Nti-192" value="购书内容" style="text;html=1;align=center;verticalAlign=middle;resizable=0;points=[];autosize=1;strokeColor=none;fillColor=none;fontFamily=Helvetica;fontSize=14;fontColor=default;labelBackgroundColor=default;" vertex="1" parent="1">
          <mxGeometry x="105.5" y="-295" width="74" height="29" as="geometry" />
        </mxCell>
        <mxCell id="oPK-tAkvvweWWnvE1Nti-194" value="提交书单" style="text;html=1;align=center;verticalAlign=middle;resizable=0;points=[];autosize=1;strokeColor=none;fillColor=none;fontFamily=Helvetica;fontSize=14;fontColor=default;labelBackgroundColor=default;" vertex="1" parent="1">
          <mxGeometry x="206.75" y="-215" width="74" height="29" as="geometry" />
        </mxCell>
        <mxCell id="oPK-tAkvvweWWnvE1Nti-196" value="D3" style="html=1;dashed=0;whiteSpace=wrap;shape=mxgraph.dfd.dataStoreID;align=left;spacingLeft=3;points=[[0,0],[0.5,0],[1,0],[0,0.5],[1,0.5],[0,1],[0.5,1],[1,1]];rounded=0;strokeWidth=2;verticalAlign=middle;fontFamily=Helvetica;fontSize=14;fontColor=default;labelBackgroundColor=default;fillColor=none;gradientColor=none;" vertex="1" parent="1">
          <mxGeometry x="539" y="-933" width="100" height="30" as="geometry" />
        </mxCell>
        <mxCell id="oPK-tAkvvweWWnvE1Nti-199" style="rounded=0;orthogonalLoop=1;jettySize=auto;html=1;exitX=0.75;exitY=1;exitDx=0;exitDy=0;entryX=0.25;entryY=0;entryDx=0;entryDy=0;strokeColor=default;strokeWidth=2;align=center;verticalAlign=middle;fontFamily=Helvetica;fontSize=14;fontColor=default;labelBackgroundColor=default;endArrow=classic;endFill=1;" edge="1" parent="1" source="oPK-tAkvvweWWnvE1Nti-197" target="oPK-tAkvvweWWnvE1Nti-162">
          <mxGeometry relative="1" as="geometry" />
        </mxCell>
        <mxCell id="oPK-tAkvvweWWnvE1Nti-197" value="购书表" style="text;html=1;align=center;verticalAlign=middle;whiteSpace=wrap;rounded=0;fontFamily=Helvetica;fontSize=14;fontColor=default;labelBackgroundColor=default;" vertex="1" parent="1">
          <mxGeometry x="562.75" y="-933" width="81.25" height="30" as="geometry" />
        </mxCell>
        <mxCell id="oPK-tAkvvweWWnvE1Nti-200" value="D1" style="html=1;dashed=0;whiteSpace=wrap;shape=mxgraph.dfd.dataStoreID;align=left;spacingLeft=3;points=[[0,0],[0.5,0],[1,0],[0,0.5],[1,0.5],[0,1],[0.5,1],[1,1]];rounded=0;strokeWidth=2;verticalAlign=middle;fontFamily=Helvetica;fontSize=14;fontColor=default;labelBackgroundColor=default;fillColor=none;gradientColor=none;" vertex="1" parent="1">
          <mxGeometry x="505" y="-747" width="100" height="30" as="geometry" />
        </mxCell>
        <mxCell id="oPK-tAkvvweWWnvE1Nti-201" value="进库表" style="text;html=1;align=center;verticalAlign=middle;whiteSpace=wrap;rounded=0;fontFamily=Helvetica;fontSize=14;fontColor=default;labelBackgroundColor=default;" vertex="1" parent="1">
          <mxGeometry x="540" y="-747" width="60" height="30" as="geometry" />
        </mxCell>
        <mxCell id="oPK-tAkvvweWWnvE1Nti-203" value="采购" style="text;html=1;align=center;verticalAlign=middle;resizable=0;points=[];autosize=1;strokeColor=none;fillColor=none;fontFamily=Helvetica;fontSize=14;fontColor=default;labelBackgroundColor=default;" vertex="1" parent="1">
          <mxGeometry x="725" y="-797" width="46" height="29" as="geometry" />
        </mxCell>
        <mxCell id="oPK-tAkvvweWWnvE1Nti-209" style="edgeStyle=none;rounded=0;orthogonalLoop=1;jettySize=auto;html=1;exitX=0;exitY=0.5;exitDx=0;exitDy=0;entryX=1;entryY=0.5;entryDx=0;entryDy=0;strokeColor=default;strokeWidth=2;align=center;verticalAlign=middle;fontFamily=Helvetica;fontSize=14;fontColor=default;labelBackgroundColor=default;endArrow=classic;endFill=1;" edge="1" parent="1" source="oPK-tAkvvweWWnvE1Nti-205" target="oPK-tAkvvweWWnvE1Nti-164">
          <mxGeometry relative="1" as="geometry" />
        </mxCell>
        <mxCell id="oPK-tAkvvweWWnvE1Nti-205" value="新书入库" style="rounded=1;whiteSpace=wrap;html=1;strokeWidth=2;fontSize=14;horizontal=1;" vertex="1" parent="1">
          <mxGeometry x="359" y="-718" width="107" height="116" as="geometry" />
        </mxCell>
        <mxCell id="oPK-tAkvvweWWnvE1Nti-222" style="edgeStyle=none;rounded=0;orthogonalLoop=1;jettySize=auto;html=1;exitX=0;exitY=0.5;exitDx=0;exitDy=0;exitPerimeter=0;entryX=1;entryY=1;entryDx=0;entryDy=0;strokeColor=default;strokeWidth=2;align=center;verticalAlign=middle;fontFamily=Helvetica;fontSize=14;fontColor=default;labelBackgroundColor=default;endArrow=classic;endFill=1;" edge="1" parent="1" source="oPK-tAkvvweWWnvE1Nti-206" target="oPK-tAkvvweWWnvE1Nti-149">
          <mxGeometry relative="1" as="geometry" />
        </mxCell>
        <mxCell id="oPK-tAkvvweWWnvE1Nti-206" value="" style="line;strokeWidth=2;html=1;strokeColor=default;align=center;verticalAlign=middle;fontFamily=Helvetica;fontSize=12;fontColor=default;fillColor=default;" vertex="1" parent="1">
          <mxGeometry x="360" y="-693" width="106" height="10" as="geometry" />
        </mxCell>
        <mxCell id="oPK-tAkvvweWWnvE1Nti-207" value="3" style="text;html=1;align=center;verticalAlign=middle;whiteSpace=wrap;rounded=0;fontFamily=Helvetica;fontSize=12;fontColor=default;" vertex="1" parent="1">
          <mxGeometry x="383" y="-720" width="60" height="30" as="geometry" />
        </mxCell>
        <mxCell id="oPK-tAkvvweWWnvE1Nti-208" style="edgeStyle=none;rounded=0;orthogonalLoop=1;jettySize=auto;html=1;exitX=0;exitY=1;exitDx=0;exitDy=0;entryX=0.983;entryY=0.112;entryDx=0;entryDy=0;entryPerimeter=0;strokeColor=default;strokeWidth=2;align=center;verticalAlign=middle;fontFamily=Helvetica;fontSize=14;fontColor=default;labelBackgroundColor=default;endArrow=classic;endFill=1;" edge="1" parent="1" source="oPK-tAkvvweWWnvE1Nti-200" target="oPK-tAkvvweWWnvE1Nti-205">
          <mxGeometry relative="1" as="geometry" />
        </mxCell>
        <mxCell id="oPK-tAkvvweWWnvE1Nti-210" value="新购信息" style="text;html=1;align=center;verticalAlign=middle;resizable=0;points=[];autosize=1;strokeColor=none;fillColor=none;fontFamily=Helvetica;fontSize=14;fontColor=default;labelBackgroundColor=default;" vertex="1" parent="1">
          <mxGeometry x="624" y="-742" width="74" height="29" as="geometry" />
        </mxCell>
        <mxCell id="oPK-tAkvvweWWnvE1Nti-211" value="图书" style="text;html=1;align=center;verticalAlign=middle;resizable=0;points=[];autosize=1;strokeColor=none;fillColor=none;fontFamily=Helvetica;fontSize=14;fontColor=default;labelBackgroundColor=default;" vertex="1" parent="1">
          <mxGeometry x="309" y="-702.5" width="46" height="29" as="geometry" />
        </mxCell>
        <mxCell id="oPK-tAkvvweWWnvE1Nti-213" value="出库" style="rounded=1;whiteSpace=wrap;html=1;strokeWidth=2;fontSize=14;horizontal=1;" vertex="1" parent="1">
          <mxGeometry x="-7" y="-717" width="107" height="116" as="geometry" />
        </mxCell>
        <mxCell id="oPK-tAkvvweWWnvE1Nti-214" value="" style="line;strokeWidth=2;html=1;strokeColor=default;align=center;verticalAlign=middle;fontFamily=Helvetica;fontSize=12;fontColor=default;fillColor=default;" vertex="1" parent="1">
          <mxGeometry x="-6" y="-692" width="106" height="10" as="geometry" />
        </mxCell>
        <mxCell id="oPK-tAkvvweWWnvE1Nti-217" style="edgeStyle=none;rounded=0;orthogonalLoop=1;jettySize=auto;html=1;exitX=0.5;exitY=0;exitDx=0;exitDy=0;strokeColor=default;strokeWidth=2;align=center;verticalAlign=middle;fontFamily=Helvetica;fontSize=14;fontColor=default;labelBackgroundColor=default;endArrow=classic;endFill=1;" edge="1" parent="1" source="oPK-tAkvvweWWnvE1Nti-215">
          <mxGeometry relative="1" as="geometry">
            <mxPoint x="0.11527386833654418" y="-764.5277638154871" as="targetPoint" />
          </mxGeometry>
        </mxCell>
        <mxCell id="oPK-tAkvvweWWnvE1Nti-215" value="3" style="text;html=1;align=center;verticalAlign=middle;whiteSpace=wrap;rounded=0;fontFamily=Helvetica;fontSize=12;fontColor=default;" vertex="1" parent="1">
          <mxGeometry x="17" y="-719" width="60" height="30" as="geometry" />
        </mxCell>
        <mxCell id="oPK-tAkvvweWWnvE1Nti-218" value="D5" style="html=1;dashed=0;whiteSpace=wrap;shape=mxgraph.dfd.dataStoreID;align=left;spacingLeft=3;points=[[0,0],[0.5,0],[1,0],[0,0.5],[1,0.5],[0,1],[0.5,1],[1,1]];rounded=0;strokeWidth=2;verticalAlign=middle;fontFamily=Helvetica;fontSize=14;fontColor=default;labelBackgroundColor=default;fillColor=none;gradientColor=none;" vertex="1" parent="1">
          <mxGeometry x="-52" y="-797.5" width="100" height="30" as="geometry" />
        </mxCell>
        <mxCell id="oPK-tAkvvweWWnvE1Nti-220" style="edgeStyle=none;rounded=0;orthogonalLoop=1;jettySize=auto;html=1;exitX=0.75;exitY=0;exitDx=0;exitDy=0;strokeColor=default;strokeWidth=2;align=center;verticalAlign=middle;fontFamily=Helvetica;fontSize=14;fontColor=default;labelBackgroundColor=default;endArrow=classic;endFill=1;" edge="1" parent="1" source="oPK-tAkvvweWWnvE1Nti-219" target="oPK-tAkvvweWWnvE1Nti-149">
          <mxGeometry relative="1" as="geometry" />
        </mxCell>
        <mxCell id="oPK-tAkvvweWWnvE1Nti-219" value="出库表" style="text;html=1;align=center;verticalAlign=middle;whiteSpace=wrap;rounded=0;fontFamily=Helvetica;fontSize=14;fontColor=default;labelBackgroundColor=default;" vertex="1" parent="1">
          <mxGeometry x="-17" y="-797.5" width="60" height="30" as="geometry" />
        </mxCell>
        <mxCell id="oPK-tAkvvweWWnvE1Nti-221" value="出库信息" style="text;html=1;align=center;verticalAlign=middle;resizable=0;points=[];autosize=1;strokeColor=none;fillColor=none;fontFamily=Helvetica;fontSize=14;fontColor=default;labelBackgroundColor=default;" vertex="1" parent="1">
          <mxGeometry x="28" y="-853" width="74" height="29" as="geometry" />
        </mxCell>
        <mxCell id="oPK-tAkvvweWWnvE1Nti-223" value="、新书入库" style="text;html=1;align=center;verticalAlign=middle;resizable=0;points=[];autosize=1;strokeColor=none;fillColor=none;fontFamily=Helvetica;fontSize=14;fontColor=default;labelBackgroundColor=default;" vertex="1" parent="1">
          <mxGeometry x="281.75" y="-786" width="88" height="29" as="geometry" />
        </mxCell>
        <mxCell id="oPK-tAkvvweWWnvE1Nti-271" style="edgeStyle=none;rounded=0;orthogonalLoop=1;jettySize=auto;html=1;exitX=0.5;exitY=1;exitDx=0;exitDy=0;entryX=0.25;entryY=0;entryDx=0;entryDy=0;strokeColor=default;strokeWidth=2;align=center;verticalAlign=middle;fontFamily=Helvetica;fontSize=20;fontColor=default;labelBackgroundColor=default;endArrow=none;endFill=0;" edge="1" parent="1" source="oPK-tAkvvweWWnvE1Nti-230" target="oPK-tAkvvweWWnvE1Nti-252">
          <mxGeometry relative="1" as="geometry" />
        </mxCell>
        <mxCell id="oPK-tAkvvweWWnvE1Nti-230" value="缺书数量" style="ellipse;whiteSpace=wrap;html=1;rounded=0;strokeWidth=2;align=center;verticalAlign=middle;fontFamily=Helvetica;fontSize=20;fontColor=default;labelBackgroundColor=default;fillColor=none;gradientColor=none;" vertex="1" parent="1">
          <mxGeometry x="-2057" y="-1153" width="120" height="80" as="geometry" />
        </mxCell>
        <mxCell id="oPK-tAkvvweWWnvE1Nti-259" style="edgeStyle=none;rounded=0;orthogonalLoop=1;jettySize=auto;html=1;exitX=0.5;exitY=1;exitDx=0;exitDy=0;entryX=0.25;entryY=0;entryDx=0;entryDy=0;strokeColor=default;strokeWidth=2;align=center;verticalAlign=middle;fontFamily=Helvetica;fontSize=20;fontColor=default;labelBackgroundColor=default;endArrow=none;endFill=0;" edge="1" parent="1" source="oPK-tAkvvweWWnvE1Nti-233" target="oPK-tAkvvweWWnvE1Nti-251">
          <mxGeometry relative="1" as="geometry" />
        </mxCell>
        <mxCell id="oPK-tAkvvweWWnvE1Nti-233" value="&lt;font style=&quot;font-size: 20px;&quot;&gt;联系方式&lt;/font&gt;" style="ellipse;whiteSpace=wrap;html=1;rounded=0;strokeWidth=2;align=center;verticalAlign=middle;fontFamily=Helvetica;fontSize=20;fontColor=default;labelBackgroundColor=default;fillColor=none;gradientColor=none;" vertex="1" parent="1">
          <mxGeometry x="-1321" y="-1535" width="120" height="80" as="geometry" />
        </mxCell>
        <mxCell id="oPK-tAkvvweWWnvE1Nti-262" style="edgeStyle=none;rounded=0;orthogonalLoop=1;jettySize=auto;html=1;exitX=0.5;exitY=1;exitDx=0;exitDy=0;entryX=0.5;entryY=0;entryDx=0;entryDy=0;strokeColor=default;strokeWidth=2;align=center;verticalAlign=middle;fontFamily=Helvetica;fontSize=20;fontColor=default;labelBackgroundColor=default;endArrow=none;endFill=0;" edge="1" parent="1" source="oPK-tAkvvweWWnvE1Nti-234" target="oPK-tAkvvweWWnvE1Nti-256">
          <mxGeometry relative="1" as="geometry" />
        </mxCell>
        <mxCell id="oPK-tAkvvweWWnvE1Nti-234" value="ID" style="ellipse;whiteSpace=wrap;html=1;rounded=0;strokeWidth=2;align=center;verticalAlign=middle;fontFamily=Helvetica;fontSize=20;fontColor=default;labelBackgroundColor=default;fillColor=none;gradientColor=none;" vertex="1" parent="1">
          <mxGeometry x="-2028" y="-1539" width="120" height="80" as="geometry" />
        </mxCell>
        <mxCell id="oPK-tAkvvweWWnvE1Nti-260" style="edgeStyle=none;rounded=0;orthogonalLoop=1;jettySize=auto;html=1;exitX=0.5;exitY=1;exitDx=0;exitDy=0;strokeColor=default;strokeWidth=2;align=center;verticalAlign=middle;fontFamily=Helvetica;fontSize=20;fontColor=default;labelBackgroundColor=default;endArrow=none;endFill=0;" edge="1" parent="1" source="oPK-tAkvvweWWnvE1Nti-235" target="oPK-tAkvvweWWnvE1Nti-255">
          <mxGeometry relative="1" as="geometry" />
        </mxCell>
        <mxCell id="oPK-tAkvvweWWnvE1Nti-235" value="书名" style="ellipse;whiteSpace=wrap;html=1;rounded=0;strokeWidth=2;align=center;verticalAlign=middle;fontFamily=Helvetica;fontSize=20;fontColor=default;labelBackgroundColor=default;fillColor=none;gradientColor=none;" vertex="1" parent="1">
          <mxGeometry x="-1972" y="-2025" width="120" height="80" as="geometry" />
        </mxCell>
        <mxCell id="oPK-tAkvvweWWnvE1Nti-236" value="教材ID" style="ellipse;whiteSpace=wrap;html=1;rounded=0;strokeWidth=2;align=center;verticalAlign=middle;fontFamily=Helvetica;fontSize=20;fontColor=default;labelBackgroundColor=default;fillColor=none;gradientColor=none;" vertex="1" parent="1">
          <mxGeometry x="-1838" y="-2009" width="120" height="80" as="geometry" />
        </mxCell>
        <mxCell id="oPK-tAkvvweWWnvE1Nti-258" style="edgeStyle=none;rounded=0;orthogonalLoop=1;jettySize=auto;html=1;exitX=0.5;exitY=1;exitDx=0;exitDy=0;entryX=0.25;entryY=0;entryDx=0;entryDy=0;strokeColor=default;strokeWidth=2;align=center;verticalAlign=middle;fontFamily=Helvetica;fontSize=20;fontColor=default;labelBackgroundColor=default;endArrow=none;endFill=0;" edge="1" parent="1" source="oPK-tAkvvweWWnvE1Nti-237" target="oPK-tAkvvweWWnvE1Nti-251">
          <mxGeometry relative="1" as="geometry" />
        </mxCell>
        <mxCell id="oPK-tAkvvweWWnvE1Nti-237" value="姓名" style="ellipse;whiteSpace=wrap;html=1;rounded=0;strokeWidth=2;align=center;verticalAlign=middle;fontFamily=Helvetica;fontSize=20;fontColor=default;labelBackgroundColor=default;fillColor=none;gradientColor=none;" vertex="1" parent="1">
          <mxGeometry x="-1469" y="-1529" width="120" height="80" as="geometry" />
        </mxCell>
        <mxCell id="oPK-tAkvvweWWnvE1Nti-268" style="edgeStyle=none;rounded=0;orthogonalLoop=1;jettySize=auto;html=1;exitX=0.5;exitY=1;exitDx=0;exitDy=0;entryX=0.25;entryY=0;entryDx=0;entryDy=0;strokeColor=default;strokeWidth=2;align=center;verticalAlign=middle;fontFamily=Helvetica;fontSize=20;fontColor=default;labelBackgroundColor=default;endArrow=none;endFill=0;" edge="1" parent="1" source="oPK-tAkvvweWWnvE1Nti-238" target="oPK-tAkvvweWWnvE1Nti-252">
          <mxGeometry relative="1" as="geometry" />
        </mxCell>
        <mxCell id="oPK-tAkvvweWWnvE1Nti-238" value="&lt;font style=&quot;font-size: 20px;&quot;&gt;ID&lt;/font&gt;" style="ellipse;whiteSpace=wrap;html=1;rounded=0;strokeWidth=2;align=center;verticalAlign=middle;fontFamily=Helvetica;fontSize=20;fontColor=default;labelBackgroundColor=default;fillColor=none;gradientColor=none;" vertex="1" parent="1">
          <mxGeometry x="-2231" y="-1153" width="120" height="80" as="geometry" />
        </mxCell>
        <mxCell id="oPK-tAkvvweWWnvE1Nti-263" style="edgeStyle=none;rounded=0;orthogonalLoop=1;jettySize=auto;html=1;exitX=0.5;exitY=1;exitDx=0;exitDy=0;entryX=0.5;entryY=0;entryDx=0;entryDy=0;strokeColor=default;strokeWidth=2;align=center;verticalAlign=middle;fontFamily=Helvetica;fontSize=20;fontColor=default;labelBackgroundColor=default;endArrow=none;endFill=0;" edge="1" parent="1" source="oPK-tAkvvweWWnvE1Nti-239" target="oPK-tAkvvweWWnvE1Nti-256">
          <mxGeometry relative="1" as="geometry" />
        </mxCell>
        <mxCell id="oPK-tAkvvweWWnvE1Nti-239" value="数量" style="ellipse;whiteSpace=wrap;html=1;rounded=0;strokeWidth=2;align=center;verticalAlign=middle;fontFamily=Helvetica;fontSize=20;fontColor=default;labelBackgroundColor=default;fillColor=none;gradientColor=none;" vertex="1" parent="1">
          <mxGeometry x="-1825" y="-1536" width="120" height="80" as="geometry" />
        </mxCell>
        <mxCell id="oPK-tAkvvweWWnvE1Nti-257" style="rounded=0;orthogonalLoop=1;jettySize=auto;html=1;exitX=0.5;exitY=1;exitDx=0;exitDy=0;entryX=0.25;entryY=0;entryDx=0;entryDy=0;strokeColor=default;strokeWidth=2;align=center;verticalAlign=middle;fontFamily=Helvetica;fontSize=20;fontColor=default;labelBackgroundColor=default;endArrow=none;endFill=0;" edge="1" parent="1" source="oPK-tAkvvweWWnvE1Nti-240" target="oPK-tAkvvweWWnvE1Nti-251">
          <mxGeometry relative="1" as="geometry" />
        </mxCell>
        <mxCell id="oPK-tAkvvweWWnvE1Nti-240" value="&lt;font style=&quot;font-size: 20px;&quot;&gt;ID&lt;/font&gt;" style="ellipse;whiteSpace=wrap;html=1;rounded=0;strokeWidth=2;align=center;verticalAlign=middle;fontFamily=Helvetica;fontSize=20;fontColor=default;labelBackgroundColor=default;fillColor=none;gradientColor=none;" vertex="1" parent="1">
          <mxGeometry x="-1589" y="-1549" width="120" height="80" as="geometry" />
        </mxCell>
        <mxCell id="oPK-tAkvvweWWnvE1Nti-270" style="edgeStyle=none;rounded=0;orthogonalLoop=1;jettySize=auto;html=1;exitX=0.5;exitY=1;exitDx=0;exitDy=0;entryX=0.25;entryY=0;entryDx=0;entryDy=0;strokeColor=default;strokeWidth=2;align=center;verticalAlign=middle;fontFamily=Helvetica;fontSize=20;fontColor=default;labelBackgroundColor=default;endArrow=none;endFill=0;" edge="1" parent="1" source="oPK-tAkvvweWWnvE1Nti-241" target="oPK-tAkvvweWWnvE1Nti-252">
          <mxGeometry relative="1" as="geometry" />
        </mxCell>
        <mxCell id="oPK-tAkvvweWWnvE1Nti-241" value="缺书类型" style="ellipse;whiteSpace=wrap;html=1;rounded=0;strokeWidth=2;align=center;verticalAlign=middle;fontFamily=Helvetica;fontSize=20;fontColor=default;labelBackgroundColor=default;fillColor=none;gradientColor=none;" vertex="1" parent="1">
          <mxGeometry x="-1875" y="-1150" width="120" height="80" as="geometry" />
        </mxCell>
        <mxCell id="oPK-tAkvvweWWnvE1Nti-290" style="edgeStyle=none;rounded=0;orthogonalLoop=1;jettySize=auto;html=1;exitX=0;exitY=0;exitDx=0;exitDy=0;strokeColor=default;strokeWidth=2;align=center;verticalAlign=middle;fontFamily=Helvetica;fontSize=20;fontColor=default;labelBackgroundColor=default;endArrow=none;endFill=0;" edge="1" parent="1" source="oPK-tAkvvweWWnvE1Nti-245" target="oPK-tAkvvweWWnvE1Nti-264">
          <mxGeometry relative="1" as="geometry" />
        </mxCell>
        <mxCell id="oPK-tAkvvweWWnvE1Nti-245" value="&lt;font style=&quot;font-size: 20px;&quot;&gt;联系方式&lt;/font&gt;" style="ellipse;whiteSpace=wrap;html=1;rounded=0;strokeWidth=2;align=center;verticalAlign=middle;fontFamily=Helvetica;fontSize=20;fontColor=default;labelBackgroundColor=default;fillColor=none;gradientColor=none;" vertex="1" parent="1">
          <mxGeometry x="-882" y="-1290" width="120" height="80" as="geometry" />
        </mxCell>
        <mxCell id="oPK-tAkvvweWWnvE1Nti-289" style="edgeStyle=none;rounded=0;orthogonalLoop=1;jettySize=auto;html=1;exitX=0.5;exitY=0;exitDx=0;exitDy=0;entryX=0.25;entryY=1;entryDx=0;entryDy=0;strokeColor=default;strokeWidth=2;align=center;verticalAlign=middle;fontFamily=Helvetica;fontSize=20;fontColor=default;labelBackgroundColor=default;endArrow=none;endFill=0;" edge="1" parent="1" source="oPK-tAkvvweWWnvE1Nti-246" target="oPK-tAkvvweWWnvE1Nti-264">
          <mxGeometry relative="1" as="geometry" />
        </mxCell>
        <mxCell id="oPK-tAkvvweWWnvE1Nti-246" value="姓名" style="ellipse;whiteSpace=wrap;html=1;rounded=0;strokeWidth=2;align=center;verticalAlign=middle;fontFamily=Helvetica;fontSize=20;fontColor=default;labelBackgroundColor=default;fillColor=none;gradientColor=none;" vertex="1" parent="1">
          <mxGeometry x="-1009" y="-1236" width="120" height="80" as="geometry" />
        </mxCell>
        <mxCell id="oPK-tAkvvweWWnvE1Nti-288" style="edgeStyle=none;rounded=0;orthogonalLoop=1;jettySize=auto;html=1;exitX=0.5;exitY=0;exitDx=0;exitDy=0;entryX=0.25;entryY=1;entryDx=0;entryDy=0;strokeColor=default;strokeWidth=2;align=center;verticalAlign=middle;fontFamily=Helvetica;fontSize=20;fontColor=default;labelBackgroundColor=default;endArrow=none;endFill=0;" edge="1" parent="1" source="oPK-tAkvvweWWnvE1Nti-247" target="oPK-tAkvvweWWnvE1Nti-264">
          <mxGeometry relative="1" as="geometry" />
        </mxCell>
        <mxCell id="oPK-tAkvvweWWnvE1Nti-247" value="&lt;font style=&quot;font-size: 20px;&quot;&gt;ID&lt;/font&gt;" style="ellipse;whiteSpace=wrap;html=1;rounded=0;strokeWidth=2;align=center;verticalAlign=middle;fontFamily=Helvetica;fontSize=20;fontColor=default;labelBackgroundColor=default;fillColor=none;gradientColor=none;" vertex="1" parent="1">
          <mxGeometry x="-1163" y="-1265" width="120" height="80" as="geometry" />
        </mxCell>
        <mxCell id="oPK-tAkvvweWWnvE1Nti-274" style="edgeStyle=none;rounded=0;orthogonalLoop=1;jettySize=auto;html=1;exitX=0;exitY=1;exitDx=0;exitDy=0;entryX=0.5;entryY=0;entryDx=0;entryDy=0;strokeColor=default;strokeWidth=2;align=center;verticalAlign=middle;fontFamily=Helvetica;fontSize=20;fontColor=default;labelBackgroundColor=default;endArrow=none;endFill=0;" edge="1" parent="1" source="oPK-tAkvvweWWnvE1Nti-248" target="oPK-tAkvvweWWnvE1Nti-253">
          <mxGeometry relative="1" as="geometry" />
        </mxCell>
        <mxCell id="oPK-tAkvvweWWnvE1Nti-248" value="类型" style="ellipse;whiteSpace=wrap;html=1;rounded=0;strokeWidth=2;align=center;verticalAlign=middle;fontFamily=Helvetica;fontSize=20;fontColor=default;labelBackgroundColor=default;fillColor=none;gradientColor=none;" vertex="1" parent="1">
          <mxGeometry x="-847.5" y="-1826" width="120" height="80" as="geometry" />
        </mxCell>
        <mxCell id="oPK-tAkvvweWWnvE1Nti-272" style="edgeStyle=none;rounded=0;orthogonalLoop=1;jettySize=auto;html=1;exitX=0.5;exitY=1;exitDx=0;exitDy=0;entryX=0.5;entryY=0;entryDx=0;entryDy=0;strokeColor=default;strokeWidth=2;align=center;verticalAlign=middle;fontFamily=Helvetica;fontSize=20;fontColor=default;labelBackgroundColor=default;endArrow=none;endFill=0;" edge="1" parent="1" source="oPK-tAkvvweWWnvE1Nti-249" target="oPK-tAkvvweWWnvE1Nti-253">
          <mxGeometry relative="1" as="geometry" />
        </mxCell>
        <mxCell id="oPK-tAkvvweWWnvE1Nti-249" value="数量" style="ellipse;whiteSpace=wrap;html=1;rounded=0;strokeWidth=2;align=center;verticalAlign=middle;fontFamily=Helvetica;fontSize=20;fontColor=default;labelBackgroundColor=default;fillColor=none;gradientColor=none;" vertex="1" parent="1">
          <mxGeometry x="-1002.5" y="-1916" width="120" height="80" as="geometry" />
        </mxCell>
        <mxCell id="oPK-tAkvvweWWnvE1Nti-273" style="edgeStyle=none;rounded=0;orthogonalLoop=1;jettySize=auto;html=1;exitX=1;exitY=1;exitDx=0;exitDy=0;strokeColor=default;strokeWidth=2;align=center;verticalAlign=middle;fontFamily=Helvetica;fontSize=20;fontColor=default;labelBackgroundColor=default;endArrow=none;endFill=0;" edge="1" parent="1" source="oPK-tAkvvweWWnvE1Nti-250">
          <mxGeometry relative="1" as="geometry">
            <mxPoint x="-971.3748168945312" y="-1699.0971374511719" as="targetPoint" />
          </mxGeometry>
        </mxCell>
        <mxCell id="oPK-tAkvvweWWnvE1Nti-250" value="&lt;font style=&quot;font-size: 20px;&quot;&gt;ID&lt;/font&gt;" style="ellipse;whiteSpace=wrap;html=1;rounded=0;strokeWidth=2;align=center;verticalAlign=middle;fontFamily=Helvetica;fontSize=20;fontColor=default;labelBackgroundColor=default;fillColor=none;gradientColor=none;" vertex="1" parent="1">
          <mxGeometry x="-1170.5" y="-1836" width="120" height="80" as="geometry" />
        </mxCell>
        <mxCell id="oPK-tAkvvweWWnvE1Nti-284" value="" style="edgeStyle=none;rounded=0;orthogonalLoop=1;jettySize=auto;html=1;strokeColor=default;strokeWidth=2;align=center;verticalAlign=middle;fontFamily=Helvetica;fontSize=20;fontColor=default;labelBackgroundColor=default;endArrow=none;endFill=0;" edge="1" parent="1" source="oPK-tAkvvweWWnvE1Nti-251" target="oPK-tAkvvweWWnvE1Nti-283">
          <mxGeometry relative="1" as="geometry" />
        </mxCell>
        <mxCell id="oPK-tAkvvweWWnvE1Nti-251" value="教师" style="rounded=0;whiteSpace=wrap;html=1;strokeColor=default;strokeWidth=2;align=center;verticalAlign=middle;fontFamily=Helvetica;fontSize=20;fontColor=default;labelBackgroundColor=default;fillColor=none;gradientColor=none;" vertex="1" parent="1">
          <mxGeometry x="-1493" y="-1394" width="120" height="60" as="geometry" />
        </mxCell>
        <mxCell id="oPK-tAkvvweWWnvE1Nti-252" value="缺书单" style="rounded=0;whiteSpace=wrap;html=1;strokeColor=default;strokeWidth=2;align=center;verticalAlign=middle;fontFamily=Helvetica;fontSize=20;fontColor=default;labelBackgroundColor=default;fillColor=none;gradientColor=none;" vertex="1" parent="1">
          <mxGeometry x="-2081" y="-969" width="120" height="60" as="geometry" />
        </mxCell>
        <mxCell id="oPK-tAkvvweWWnvE1Nti-253" value="书库" style="rounded=0;whiteSpace=wrap;html=1;strokeColor=default;strokeWidth=2;align=center;verticalAlign=middle;fontFamily=Helvetica;fontSize=20;fontColor=default;labelBackgroundColor=default;fillColor=none;gradientColor=none;" vertex="1" parent="1">
          <mxGeometry x="-1022.5" y="-1705" width="120" height="60" as="geometry" />
        </mxCell>
        <mxCell id="oPK-tAkvvweWWnvE1Nti-276" value="" style="edgeStyle=none;rounded=0;orthogonalLoop=1;jettySize=auto;html=1;strokeColor=default;strokeWidth=2;align=center;verticalAlign=middle;fontFamily=Helvetica;fontSize=20;fontColor=default;labelBackgroundColor=default;endArrow=none;endFill=0;" edge="1" parent="1" source="oPK-tAkvvweWWnvE1Nti-255" target="oPK-tAkvvweWWnvE1Nti-275">
          <mxGeometry relative="1" as="geometry" />
        </mxCell>
        <mxCell id="oPK-tAkvvweWWnvE1Nti-255" value="图书" style="rounded=0;whiteSpace=wrap;html=1;strokeColor=default;strokeWidth=2;align=center;verticalAlign=middle;fontFamily=Helvetica;fontSize=20;fontColor=default;labelBackgroundColor=default;fillColor=none;gradientColor=none;" vertex="1" parent="1">
          <mxGeometry x="-1920" y="-1876" width="120" height="60" as="geometry" />
        </mxCell>
        <mxCell id="oPK-tAkvvweWWnvE1Nti-281" value="" style="edgeStyle=none;rounded=0;orthogonalLoop=1;jettySize=auto;html=1;strokeColor=default;strokeWidth=2;align=center;verticalAlign=middle;fontFamily=Helvetica;fontSize=20;fontColor=default;labelBackgroundColor=default;endArrow=none;endFill=0;" edge="1" parent="1" source="oPK-tAkvvweWWnvE1Nti-256" target="oPK-tAkvvweWWnvE1Nti-280">
          <mxGeometry relative="1" as="geometry" />
        </mxCell>
        <mxCell id="oPK-tAkvvweWWnvE1Nti-256" value="购书单" style="rounded=0;whiteSpace=wrap;html=1;strokeColor=default;strokeWidth=2;align=center;verticalAlign=middle;fontFamily=Helvetica;fontSize=20;fontColor=default;labelBackgroundColor=default;fillColor=none;gradientColor=none;" vertex="1" parent="1">
          <mxGeometry x="-1938" y="-1370" width="120" height="60" as="geometry" />
        </mxCell>
        <mxCell id="oPK-tAkvvweWWnvE1Nti-261" style="edgeStyle=none;rounded=0;orthogonalLoop=1;jettySize=auto;html=1;exitX=0.5;exitY=1;exitDx=0;exitDy=0;entryX=0.384;entryY=-0.115;entryDx=0;entryDy=0;entryPerimeter=0;strokeColor=default;strokeWidth=2;align=center;verticalAlign=middle;fontFamily=Helvetica;fontSize=20;fontColor=default;labelBackgroundColor=default;endArrow=none;endFill=0;" edge="1" parent="1" source="oPK-tAkvvweWWnvE1Nti-236" target="oPK-tAkvvweWWnvE1Nti-255">
          <mxGeometry relative="1" as="geometry" />
        </mxCell>
        <mxCell id="oPK-tAkvvweWWnvE1Nti-292" value="" style="edgeStyle=none;rounded=0;orthogonalLoop=1;jettySize=auto;html=1;strokeColor=default;strokeWidth=2;align=center;verticalAlign=middle;fontFamily=Helvetica;fontSize=20;fontColor=default;labelBackgroundColor=default;endArrow=none;endFill=0;" edge="1" parent="1" source="oPK-tAkvvweWWnvE1Nti-264" target="oPK-tAkvvweWWnvE1Nti-291">
          <mxGeometry relative="1" as="geometry" />
        </mxCell>
        <mxCell id="oPK-tAkvvweWWnvE1Nti-264" value="登记人员" style="rounded=0;whiteSpace=wrap;html=1;strokeColor=default;strokeWidth=2;align=center;verticalAlign=middle;fontFamily=Helvetica;fontSize=20;fontColor=default;labelBackgroundColor=default;fillColor=none;gradientColor=none;" vertex="1" parent="1">
          <mxGeometry x="-1016" y="-1394" width="120" height="60" as="geometry" />
        </mxCell>
        <mxCell id="oPK-tAkvvweWWnvE1Nti-277" style="edgeStyle=none;rounded=0;orthogonalLoop=1;jettySize=auto;html=1;exitX=0.5;exitY=1;exitDx=0;exitDy=0;entryX=0.5;entryY=0;entryDx=0;entryDy=0;strokeColor=default;strokeWidth=2;align=center;verticalAlign=middle;fontFamily=Helvetica;fontSize=20;fontColor=default;labelBackgroundColor=default;endArrow=none;endFill=0;" edge="1" parent="1" source="oPK-tAkvvweWWnvE1Nti-275" target="oPK-tAkvvweWWnvE1Nti-256">
          <mxGeometry relative="1" as="geometry" />
        </mxCell>
        <mxCell id="oPK-tAkvvweWWnvE1Nti-275" value="包含" style="rhombus;whiteSpace=wrap;html=1;fontSize=20;fillColor=none;rounded=0;strokeWidth=2;labelBackgroundColor=default;gradientColor=none;" vertex="1" parent="1">
          <mxGeometry x="-1959" y="-1759" width="204" height="80" as="geometry" />
        </mxCell>
        <mxCell id="oPK-tAkvvweWWnvE1Nti-278" value="1" style="text;html=1;align=center;verticalAlign=middle;resizable=0;points=[];autosize=1;strokeColor=none;fillColor=none;fontFamily=Helvetica;fontSize=20;fontColor=default;labelBackgroundColor=default;" vertex="1" parent="1">
          <mxGeometry x="-1854" y="-1612" width="29" height="36" as="geometry" />
        </mxCell>
        <mxCell id="oPK-tAkvvweWWnvE1Nti-279" value="n" style="text;html=1;align=center;verticalAlign=middle;resizable=0;points=[];autosize=1;strokeColor=none;fillColor=none;fontFamily=Helvetica;fontSize=20;fontColor=default;labelBackgroundColor=default;" vertex="1" parent="1">
          <mxGeometry x="-1846" y="-1804" width="29" height="36" as="geometry" />
        </mxCell>
        <mxCell id="oPK-tAkvvweWWnvE1Nti-282" style="edgeStyle=none;rounded=0;orthogonalLoop=1;jettySize=auto;html=1;exitX=1;exitY=0.5;exitDx=0;exitDy=0;entryX=0;entryY=0.5;entryDx=0;entryDy=0;strokeColor=default;strokeWidth=2;align=center;verticalAlign=middle;fontFamily=Helvetica;fontSize=20;fontColor=default;labelBackgroundColor=default;endArrow=none;endFill=0;" edge="1" parent="1" source="oPK-tAkvvweWWnvE1Nti-280" target="oPK-tAkvvweWWnvE1Nti-251">
          <mxGeometry relative="1" as="geometry" />
        </mxCell>
        <mxCell id="oPK-tAkvvweWWnvE1Nti-280" value="采购" style="rhombus;whiteSpace=wrap;html=1;fontSize=20;fillColor=none;rounded=0;strokeWidth=2;labelBackgroundColor=default;gradientColor=none;" vertex="1" parent="1">
          <mxGeometry x="-1781" y="-1380" width="173" height="57" as="geometry" />
        </mxCell>
        <mxCell id="oPK-tAkvvweWWnvE1Nti-286" style="edgeStyle=none;rounded=0;orthogonalLoop=1;jettySize=auto;html=1;exitX=1;exitY=0.5;exitDx=0;exitDy=0;entryX=0;entryY=0.5;entryDx=0;entryDy=0;strokeColor=default;strokeWidth=2;align=center;verticalAlign=middle;fontFamily=Helvetica;fontSize=20;fontColor=default;labelBackgroundColor=default;endArrow=none;endFill=0;" edge="1" parent="1" source="oPK-tAkvvweWWnvE1Nti-283" target="oPK-tAkvvweWWnvE1Nti-264">
          <mxGeometry relative="1" as="geometry" />
        </mxCell>
        <mxCell id="oPK-tAkvvweWWnvE1Nti-283" value="信息" style="rhombus;whiteSpace=wrap;html=1;fontSize=20;fillColor=none;rounded=0;strokeWidth=2;labelBackgroundColor=default;gradientColor=none;" vertex="1" parent="1">
          <mxGeometry x="-1273" y="-1404" width="80" height="80" as="geometry" />
        </mxCell>
        <mxCell id="oPK-tAkvvweWWnvE1Nti-294" style="edgeStyle=none;rounded=0;orthogonalLoop=1;jettySize=auto;html=1;exitX=0.5;exitY=0;exitDx=0;exitDy=0;entryX=0.5;entryY=1;entryDx=0;entryDy=0;strokeColor=default;strokeWidth=2;align=center;verticalAlign=middle;fontFamily=Helvetica;fontSize=20;fontColor=default;labelBackgroundColor=default;endArrow=none;endFill=0;" edge="1" parent="1" source="oPK-tAkvvweWWnvE1Nti-291" target="oPK-tAkvvweWWnvE1Nti-253">
          <mxGeometry relative="1" as="geometry" />
        </mxCell>
        <mxCell id="oPK-tAkvvweWWnvE1Nti-291" value="获得" style="rhombus;whiteSpace=wrap;html=1;fontSize=20;fillColor=none;rounded=0;strokeWidth=2;labelBackgroundColor=default;gradientColor=none;" vertex="1" parent="1">
          <mxGeometry x="-996" y="-1544" width="80" height="80" as="geometry" />
        </mxCell>
      </root>
    </mxGraphModel>
  </diagram>
</mxfile>
